%TF.GenerationSoftware,KiCad,Pcbnew,8.0.1*%
%TF.CreationDate,2025-07-07T19:41:59+09:00*%
%TF.ProjectId,lzIron_RP2040,6c7a4972-6f6e-45f5-9250-323034302e6b,rev?*%
%TF.SameCoordinates,Original*%
%TF.FileFunction,Soldermask,Top*%
%TF.FilePolarity,Negative*%
%FSLAX46Y46*%
G04 Gerber Fmt 4.6, Leading zero omitted, Abs format (unit mm)*
G04 Created by KiCad (PCBNEW 8.0.1) date 2025-07-07 19:41:59*
%MOMM*%
%LPD*%
G01*
G04 APERTURE LIST*
G04 Aperture macros list*
%AMRoundRect*
0 Rectangle with rounded corners*
0 $1 Rounding radius*
0 $2 $3 $4 $5 $6 $7 $8 $9 X,Y pos of 4 corners*
0 Add a 4 corners polygon primitive as box body*
4,1,4,$2,$3,$4,$5,$6,$7,$8,$9,$2,$3,0*
0 Add four circle primitives for the rounded corners*
1,1,$1+$1,$2,$3*
1,1,$1+$1,$4,$5*
1,1,$1+$1,$6,$7*
1,1,$1+$1,$8,$9*
0 Add four rect primitives between the rounded corners*
20,1,$1+$1,$2,$3,$4,$5,0*
20,1,$1+$1,$4,$5,$6,$7,0*
20,1,$1+$1,$6,$7,$8,$9,0*
20,1,$1+$1,$8,$9,$2,$3,0*%
%AMOutline5P*
0 Free polygon, 5 corners , with rotation*
0 The origin of the aperture is its center*
0 number of corners: always 5*
0 $1 to $10 corner X, Y*
0 $11 Rotation angle, in degrees counterclockwise*
0 create outline with 5 corners*
4,1,5,$1,$2,$3,$4,$5,$6,$7,$8,$9,$10,$1,$2,$11*%
%AMOutline6P*
0 Free polygon, 6 corners , with rotation*
0 The origin of the aperture is its center*
0 number of corners: always 6*
0 $1 to $12 corner X, Y*
0 $13 Rotation angle, in degrees counterclockwise*
0 create outline with 6 corners*
4,1,6,$1,$2,$3,$4,$5,$6,$7,$8,$9,$10,$11,$12,$1,$2,$13*%
%AMOutline7P*
0 Free polygon, 7 corners , with rotation*
0 The origin of the aperture is its center*
0 number of corners: always 7*
0 $1 to $14 corner X, Y*
0 $15 Rotation angle, in degrees counterclockwise*
0 create outline with 7 corners*
4,1,7,$1,$2,$3,$4,$5,$6,$7,$8,$9,$10,$11,$12,$13,$14,$1,$2,$15*%
%AMOutline8P*
0 Free polygon, 8 corners , with rotation*
0 The origin of the aperture is its center*
0 number of corners: always 8*
0 $1 to $16 corner X, Y*
0 $17 Rotation angle, in degrees counterclockwise*
0 create outline with 8 corners*
4,1,8,$1,$2,$3,$4,$5,$6,$7,$8,$9,$10,$11,$12,$13,$14,$15,$16,$1,$2,$17*%
G04 Aperture macros list end*
%ADD10RoundRect,0.140000X-0.140000X-0.170000X0.140000X-0.170000X0.140000X0.170000X-0.140000X0.170000X0*%
%ADD11RoundRect,0.140000X0.170000X-0.140000X0.170000X0.140000X-0.170000X0.140000X-0.170000X-0.140000X0*%
%ADD12C,1.750000*%
%ADD13C,4.000000*%
%ADD14C,2.500000*%
%ADD15RoundRect,0.225000X0.375000X-0.225000X0.375000X0.225000X-0.375000X0.225000X-0.375000X-0.225000X0*%
%ADD16RoundRect,0.140000X0.140000X0.170000X-0.140000X0.170000X-0.140000X-0.170000X0.140000X-0.170000X0*%
%ADD17RoundRect,0.150000X-0.150000X0.650000X-0.150000X-0.650000X0.150000X-0.650000X0.150000X0.650000X0*%
%ADD18C,3.048000*%
%ADD19C,3.987800*%
%ADD20R,1.600000X0.850000*%
%ADD21Outline6P,-0.800000X0.085000X-0.460000X0.425000X0.800000X0.425000X0.800000X-0.085000X0.460000X-0.425000X-0.800000X-0.425000X0.000000*%
%ADD22RoundRect,0.250000X-0.325000X-0.450000X0.325000X-0.450000X0.325000X0.450000X-0.325000X0.450000X0*%
%ADD23RoundRect,0.140000X-0.170000X0.140000X-0.170000X-0.140000X0.170000X-0.140000X0.170000X0.140000X0*%
%ADD24R,0.850000X1.600000*%
%ADD25Outline6P,-0.800000X0.085000X-0.460000X0.425000X0.800000X0.425000X0.800000X-0.085000X0.460000X-0.425000X-0.800000X-0.425000X90.000000*%
%ADD26Outline6P,-0.800000X0.085000X-0.460000X0.425000X0.800000X0.425000X0.800000X-0.085000X0.460000X-0.425000X-0.800000X-0.425000X180.000000*%
%ADD27Outline6P,-0.800000X0.085000X-0.460000X0.425000X0.800000X0.425000X0.800000X-0.085000X0.460000X-0.425000X-0.800000X-0.425000X270.000000*%
%ADD28RoundRect,0.225000X-0.225000X-0.250000X0.225000X-0.250000X0.225000X0.250000X-0.225000X0.250000X0*%
%ADD29RoundRect,0.050000X-0.050000X0.387500X-0.050000X-0.387500X0.050000X-0.387500X0.050000X0.387500X0*%
%ADD30RoundRect,0.050000X-0.387500X0.050000X-0.387500X-0.050000X0.387500X-0.050000X0.387500X0.050000X0*%
%ADD31RoundRect,0.144000X-1.456000X1.456000X-1.456000X-1.456000X1.456000X-1.456000X1.456000X1.456000X0*%
%ADD32RoundRect,0.150000X0.150000X-0.587500X0.150000X0.587500X-0.150000X0.587500X-0.150000X-0.587500X0*%
%ADD33RoundRect,0.225000X0.225000X0.250000X-0.225000X0.250000X-0.225000X-0.250000X0.225000X-0.250000X0*%
%ADD34R,0.900000X1.000000*%
%ADD35C,0.650000*%
%ADD36RoundRect,0.150000X0.150000X0.425000X-0.150000X0.425000X-0.150000X-0.425000X0.150000X-0.425000X0*%
%ADD37RoundRect,0.075000X0.075000X0.500000X-0.075000X0.500000X-0.075000X-0.500000X0.075000X-0.500000X0*%
%ADD38O,1.000000X2.100000*%
%ADD39O,1.000000X1.800000*%
%ADD40RoundRect,0.150000X0.512500X0.150000X-0.512500X0.150000X-0.512500X-0.150000X0.512500X-0.150000X0*%
%ADD41C,1.524000*%
G04 APERTURE END LIST*
D10*
%TO.C,LC2*%
X317545000Y-118975000D03*
X318505000Y-118975000D03*
%TD*%
D11*
%TO.C,C4*%
X282925000Y-123305000D03*
X282925000Y-122345000D03*
%TD*%
D12*
%TO.C,MX21*%
X62731250Y-78550000D03*
D13*
X67811250Y-78550000D03*
D12*
X72891250Y-78550000D03*
D14*
X64001250Y-76010000D03*
X70351250Y-73470000D03*
%TD*%
D15*
%TO.C,D74*%
X196412500Y-141787500D03*
X196412500Y-138487500D03*
%TD*%
%TO.C,D31*%
X267850000Y-84637500D03*
X267850000Y-81337500D03*
%TD*%
D12*
%TO.C,MX82*%
X107975000Y-154750000D03*
D13*
X113055000Y-154750000D03*
D12*
X118135000Y-154750000D03*
X119881250Y-154750000D03*
D13*
X124961250Y-154750000D03*
D12*
X130041250Y-154750000D03*
D14*
X109245000Y-152210000D03*
X121151250Y-152210000D03*
X115595000Y-149670000D03*
X127501250Y-149670000D03*
%TD*%
D12*
%TO.C,MX69*%
X86543750Y-135700000D03*
D13*
X91623750Y-135700000D03*
D12*
X96703750Y-135700000D03*
D14*
X87813750Y-133160000D03*
X94163750Y-130620000D03*
%TD*%
D12*
%TO.C,MX8*%
X148456250Y-54737500D03*
D13*
X153536250Y-54737500D03*
D12*
X158616250Y-54737500D03*
D14*
X149726250Y-52197500D03*
X156076250Y-49657500D03*
%TD*%
D16*
%TO.C,C1*%
X287030000Y-117450000D03*
X286070000Y-117450000D03*
%TD*%
D15*
%TO.C,D68*%
X82112500Y-141787500D03*
X82112500Y-138487500D03*
%TD*%
D17*
%TO.C,U2*%
X295605000Y-109750000D03*
X294335000Y-109750000D03*
X293065000Y-109750000D03*
X291795000Y-109750000D03*
X291795000Y-116950000D03*
X293065000Y-116950000D03*
X294335000Y-116950000D03*
X295605000Y-116950000D03*
%TD*%
D12*
%TO.C,MX47*%
X224656250Y-97600000D03*
D13*
X229736250Y-97600000D03*
D12*
X234816250Y-97600000D03*
D14*
X225926250Y-95060000D03*
X232276250Y-92520000D03*
%TD*%
D18*
%TO.C,REF\u002A\u002A*%
X229704500Y-128715000D03*
D19*
X229704500Y-143925000D03*
D18*
X253580500Y-128715000D03*
D19*
X253580500Y-143925000D03*
%TD*%
D15*
%TO.C,D69*%
X101162500Y-141787500D03*
X101162500Y-138487500D03*
%TD*%
%TO.C,D15*%
X310712500Y-60825000D03*
X310712500Y-57525000D03*
%TD*%
%TO.C,D37*%
X48775000Y-103687500D03*
X48775000Y-100387500D03*
%TD*%
D12*
%TO.C,MX75*%
X200843750Y-135700000D03*
D13*
X205923750Y-135700000D03*
D12*
X211003750Y-135700000D03*
D14*
X202113750Y-133160000D03*
X208463750Y-130620000D03*
%TD*%
D15*
%TO.C,D66*%
X44012500Y-141787500D03*
X44012500Y-138487500D03*
%TD*%
D20*
%TO.C,ULED1*%
X316275000Y-124875000D03*
X316275000Y-126625000D03*
D21*
X319775000Y-126625000D03*
D20*
X319775000Y-124875000D03*
%TD*%
D12*
%TO.C,MX81*%
X36537500Y-154750000D03*
X38918750Y-154750000D03*
D13*
X41617500Y-154750000D03*
X43998750Y-154750000D03*
D12*
X46697500Y-154750000D03*
X49078750Y-154750000D03*
D14*
X37807500Y-152210000D03*
X40188750Y-152210000D03*
X44157500Y-149670000D03*
X46538750Y-149670000D03*
%TD*%
D15*
%TO.C,D75*%
X215462500Y-141787500D03*
X215462500Y-138487500D03*
%TD*%
D12*
%TO.C,MX12*%
X234181250Y-54737500D03*
D13*
X239261250Y-54737500D03*
D12*
X244341250Y-54737500D03*
D14*
X235451250Y-52197500D03*
X241801250Y-49657500D03*
%TD*%
D22*
%TO.C,F1*%
X183300000Y-66500000D03*
X185350000Y-66500000D03*
%TD*%
D12*
%TO.C,MX35*%
X-8706250Y-97600000D03*
D13*
X-3626250Y-97600000D03*
D12*
X1453750Y-97600000D03*
D14*
X-7436250Y-95060000D03*
X-1086250Y-92520000D03*
%TD*%
D23*
%TO.C,C12*%
X285775000Y-122345000D03*
X285775000Y-123305000D03*
%TD*%
D12*
%TO.C,MX56*%
X77018750Y-116650000D03*
D13*
X82098750Y-116650000D03*
D12*
X87178750Y-116650000D03*
D14*
X78288750Y-114110000D03*
X84638750Y-111570000D03*
%TD*%
D10*
%TO.C,R9*%
X158770000Y-45000000D03*
X159730000Y-45000000D03*
%TD*%
D15*
%TO.C,D20*%
X58300000Y-84637500D03*
X58300000Y-81337500D03*
%TD*%
D10*
%TO.C,LC1*%
X317545000Y-128475000D03*
X318505000Y-128475000D03*
%TD*%
D12*
%TO.C,MX85*%
X224656250Y-154750000D03*
X227037500Y-154750000D03*
D13*
X229736250Y-154750000D03*
X232117500Y-154750000D03*
D12*
X234816250Y-154750000D03*
X237197500Y-154750000D03*
D14*
X225926250Y-152210000D03*
X228307500Y-152210000D03*
X232276250Y-149670000D03*
X234657500Y-149670000D03*
%TD*%
D15*
%TO.C,D88*%
X310712500Y-160837500D03*
X310712500Y-157537500D03*
%TD*%
%TO.C,D84*%
X217843750Y-160837500D03*
X217843750Y-157537500D03*
%TD*%
D24*
%TO.C,ULED8*%
X5525000Y-169900000D03*
X7275000Y-169900000D03*
D25*
X7275000Y-166400000D03*
D24*
X5525000Y-166400000D03*
%TD*%
D12*
%TO.C,MX73*%
X162743750Y-135700000D03*
D13*
X167823750Y-135700000D03*
D12*
X172903750Y-135700000D03*
D14*
X164013750Y-133160000D03*
X170363750Y-130620000D03*
%TD*%
D16*
%TO.C,C8*%
X298305000Y-113474999D03*
X297345000Y-113474999D03*
%TD*%
D15*
%TO.C,D36*%
X29725000Y-103687500D03*
X29725000Y-100387500D03*
%TD*%
%TO.C,D34*%
X310712500Y-76800000D03*
X310712500Y-73500000D03*
%TD*%
%TO.C,D52*%
X8293750Y-122737500D03*
X8293750Y-119437500D03*
%TD*%
D12*
%TO.C,MX74*%
X181793750Y-135700000D03*
D13*
X186873750Y-135700000D03*
D12*
X191953750Y-135700000D03*
D14*
X183063750Y-133160000D03*
X189413750Y-130620000D03*
%TD*%
D12*
%TO.C,MX1*%
X-13468750Y-54737500D03*
D13*
X-8388750Y-54737500D03*
D12*
X-3308750Y-54737500D03*
D14*
X-12198750Y-52197500D03*
X-5848750Y-49657500D03*
%TD*%
D12*
%TO.C,MX63*%
X210368750Y-116650000D03*
D13*
X215448750Y-116650000D03*
D12*
X220528750Y-116650000D03*
D14*
X211638750Y-114110000D03*
X217988750Y-111570000D03*
%TD*%
D12*
%TO.C,MX44*%
X167506250Y-97600000D03*
D13*
X172586250Y-97600000D03*
D12*
X177666250Y-97600000D03*
D14*
X168776250Y-95060000D03*
X175126250Y-92520000D03*
%TD*%
D24*
%TO.C,ULED6*%
X300550000Y-169825000D03*
X302300000Y-169825000D03*
D25*
X302300000Y-166325000D03*
D24*
X300550000Y-166325000D03*
%TD*%
D15*
%TO.C,D38*%
X67825000Y-103687500D03*
X67825000Y-100387500D03*
%TD*%
D12*
%TO.C,MX62*%
X191318750Y-116650000D03*
D13*
X196398750Y-116650000D03*
D12*
X201478750Y-116650000D03*
D14*
X192588750Y-114110000D03*
X198938750Y-111570000D03*
%TD*%
D11*
%TO.C,C3*%
X283875000Y-123305000D03*
X283875000Y-122345000D03*
%TD*%
D15*
%TO.C,D58*%
X129737500Y-122737500D03*
X129737500Y-119437500D03*
%TD*%
D10*
%TO.C,C7*%
X272495000Y-116875000D03*
X273455000Y-116875000D03*
%TD*%
D11*
%TO.C,C5*%
X278400000Y-123380000D03*
X278400000Y-122420000D03*
%TD*%
D12*
%TO.C,MX18*%
X5581250Y-78550000D03*
D13*
X10661250Y-78550000D03*
D12*
X15741250Y-78550000D03*
D14*
X6851250Y-76010000D03*
X13201250Y-73470000D03*
%TD*%
D12*
%TO.C,MX83*%
X179412500Y-154750000D03*
D13*
X184492500Y-154750000D03*
D12*
X189572500Y-154750000D03*
D14*
X180682500Y-152210000D03*
X187032500Y-149670000D03*
%TD*%
D12*
%TO.C,MX64*%
X241325000Y-116650000D03*
D13*
X246405000Y-116650000D03*
D12*
X251485000Y-116650000D03*
D14*
X242595000Y-114110000D03*
X248945000Y-111570000D03*
%TD*%
D15*
%TO.C,D11*%
X229750000Y-60825000D03*
X229750000Y-57525000D03*
%TD*%
D12*
%TO.C,MX52*%
X-11087500Y-116650000D03*
X-6325000Y-116650000D03*
D13*
X-6007500Y-116650000D03*
X-1245000Y-116650000D03*
D12*
X-927500Y-116650000D03*
X3835000Y-116650000D03*
D14*
X-5055000Y-114110000D03*
X-3467500Y-111570000D03*
X-9817500Y-114110000D03*
X1295000Y-111570000D03*
%TD*%
D12*
%TO.C,MX25*%
X138931250Y-78550000D03*
D13*
X144011250Y-78550000D03*
D12*
X149091250Y-78550000D03*
D14*
X140201250Y-76010000D03*
X146551250Y-73470000D03*
%TD*%
D12*
%TO.C,MX41*%
X110356250Y-97600000D03*
D13*
X115436250Y-97600000D03*
D12*
X120516250Y-97600000D03*
D14*
X111626250Y-95060000D03*
X117976250Y-92520000D03*
%TD*%
D12*
%TO.C,MX22*%
X81781250Y-78550000D03*
D13*
X86861250Y-78550000D03*
D12*
X91941250Y-78550000D03*
D14*
X83051250Y-76010000D03*
X89401250Y-73470000D03*
%TD*%
D15*
%TO.C,D83*%
X194031250Y-160837500D03*
X194031250Y-157537500D03*
%TD*%
%TO.C,D2*%
X39250000Y-60825000D03*
X39250000Y-57525000D03*
%TD*%
D12*
%TO.C,MX60*%
X153218750Y-116650000D03*
D13*
X158298750Y-116650000D03*
D12*
X163378750Y-116650000D03*
D14*
X154488750Y-114110000D03*
X160838750Y-111570000D03*
%TD*%
D15*
%TO.C,D46*%
X220225000Y-103687500D03*
X220225000Y-100387500D03*
%TD*%
D10*
%TO.C,C16*%
X269770000Y-120675000D03*
X270730000Y-120675000D03*
%TD*%
D23*
%TO.C,C6*%
X278350000Y-108994999D03*
X278350000Y-109954999D03*
%TD*%
D15*
%TO.C,D9*%
X182125000Y-60825000D03*
X182125000Y-57525000D03*
%TD*%
D23*
%TO.C,C17*%
X282750000Y-108995000D03*
X282750000Y-109955000D03*
%TD*%
D12*
%TO.C,MX68*%
X67493750Y-135700000D03*
D13*
X72573750Y-135700000D03*
D12*
X77653750Y-135700000D03*
D14*
X68763750Y-133160000D03*
X75113750Y-130620000D03*
%TD*%
D12*
%TO.C,MX80*%
X12725000Y-154750000D03*
X15106250Y-154750000D03*
D13*
X17805000Y-154750000D03*
X20186250Y-154750000D03*
D12*
X22885000Y-154750000D03*
X25266250Y-154750000D03*
D14*
X13995000Y-152210000D03*
X16376250Y-152210000D03*
X20345000Y-149670000D03*
X22726250Y-149670000D03*
%TD*%
D12*
%TO.C,MX30*%
X234181250Y-78550000D03*
D13*
X239261250Y-78550000D03*
D12*
X244341250Y-78550000D03*
D14*
X235451250Y-76010000D03*
X241801250Y-73470000D03*
%TD*%
D15*
%TO.C,D63*%
X224987500Y-122737500D03*
X224987500Y-119437500D03*
%TD*%
D12*
%TO.C,MX61*%
X172268750Y-116650000D03*
D13*
X177348750Y-116650000D03*
D12*
X182428750Y-116650000D03*
D14*
X173538750Y-114110000D03*
X179888750Y-111570000D03*
%TD*%
D15*
%TO.C,D4*%
X77350000Y-60825000D03*
X77350000Y-57525000D03*
%TD*%
D12*
%TO.C,MX54*%
X38918750Y-116650000D03*
D13*
X43998750Y-116650000D03*
D12*
X49078750Y-116650000D03*
D14*
X40188750Y-114110000D03*
X46538750Y-111570000D03*
%TD*%
D15*
%TO.C,D43*%
X163075000Y-103687500D03*
X163075000Y-100387500D03*
%TD*%
%TO.C,D85*%
X241656250Y-160837500D03*
X241656250Y-157537500D03*
%TD*%
D12*
%TO.C,MX78*%
X296093750Y-135700000D03*
D13*
X301173750Y-135700000D03*
D12*
X306253750Y-135700000D03*
D14*
X297363750Y-133160000D03*
X303713750Y-130620000D03*
%TD*%
D20*
%TO.C,ULED2*%
X316275000Y-120850000D03*
X316275000Y-122600000D03*
D21*
X319775000Y-122600000D03*
D20*
X319775000Y-120850000D03*
%TD*%
D12*
%TO.C,MX24*%
X119881250Y-78550000D03*
D13*
X124961250Y-78550000D03*
D12*
X130041250Y-78550000D03*
D14*
X121151250Y-76010000D03*
X127501250Y-73470000D03*
%TD*%
D12*
%TO.C,MX51*%
X315143750Y-97600000D03*
D13*
X320223750Y-97600000D03*
D12*
X325303750Y-97600000D03*
D14*
X316413750Y-95060000D03*
X322763750Y-92520000D03*
%TD*%
D12*
%TO.C,MX48*%
X248468750Y-97600000D03*
D13*
X253548750Y-97600000D03*
D12*
X258628750Y-97600000D03*
D14*
X249738750Y-95060000D03*
X256088750Y-92520000D03*
%TD*%
D15*
%TO.C,D89*%
X310712500Y-153000000D03*
X310712500Y-149700000D03*
%TD*%
%TO.C,D3*%
X58300000Y-60825000D03*
X58300000Y-57525000D03*
%TD*%
D12*
%TO.C,MX26*%
X157981250Y-78550000D03*
D13*
X163061250Y-78550000D03*
D12*
X168141250Y-78550000D03*
D14*
X159251250Y-76010000D03*
X165601250Y-73470000D03*
%TD*%
D15*
%TO.C,D6*%
X124975000Y-60825000D03*
X124975000Y-57525000D03*
%TD*%
D16*
%TO.C,R6*%
X270730000Y-121625000D03*
X269770000Y-121625000D03*
%TD*%
D15*
%TO.C,D18*%
X20200000Y-84637500D03*
X20200000Y-81337500D03*
%TD*%
%TO.C,D47*%
X239275000Y-103687500D03*
X239275000Y-100387500D03*
%TD*%
%TO.C,D82*%
X133950000Y-157350000D03*
X133950000Y-154050000D03*
%TD*%
D16*
%TO.C,R4*%
X298305000Y-111577096D03*
X297345000Y-111577096D03*
%TD*%
D15*
%TO.C,D27*%
X191650000Y-84637500D03*
X191650000Y-81337500D03*
%TD*%
%TO.C,D19*%
X39250000Y-84637500D03*
X39250000Y-81337500D03*
%TD*%
D12*
%TO.C,MX17*%
X-13468750Y-78550000D03*
D13*
X-8388750Y-78550000D03*
D12*
X-3308750Y-78550000D03*
D14*
X-12198750Y-76010000D03*
X-5848750Y-73470000D03*
%TD*%
D20*
%TO.C,ULED4*%
X325425000Y-126625000D03*
X325425000Y-124875000D03*
D26*
X321925000Y-124875000D03*
D20*
X321925000Y-126625000D03*
%TD*%
D12*
%TO.C,MX67*%
X48443750Y-135700000D03*
D13*
X53523750Y-135700000D03*
D12*
X58603750Y-135700000D03*
D14*
X49713750Y-133160000D03*
X56063750Y-130620000D03*
%TD*%
D12*
%TO.C,MX29*%
X215131250Y-78550000D03*
D13*
X220211250Y-78550000D03*
D12*
X225291250Y-78550000D03*
D14*
X216401250Y-76010000D03*
X222751250Y-73470000D03*
%TD*%
D24*
%TO.C,ULED5*%
X306325000Y-166325000D03*
X304575000Y-166325000D03*
D27*
X304575000Y-169825000D03*
D24*
X306325000Y-169825000D03*
%TD*%
D12*
%TO.C,MX87*%
X277043750Y-154750000D03*
D13*
X282123750Y-154750000D03*
D12*
X287203750Y-154750000D03*
D14*
X278313750Y-152210000D03*
X284663750Y-149670000D03*
%TD*%
D12*
%TO.C,MX5*%
X81781250Y-54737500D03*
D13*
X86861250Y-54737500D03*
D12*
X91941250Y-54737500D03*
D14*
X83051250Y-52197500D03*
X89401250Y-49657500D03*
%TD*%
D15*
%TO.C,D42*%
X144025000Y-103687500D03*
X144025000Y-100387500D03*
%TD*%
D12*
%TO.C,MX15*%
X296093750Y-54737500D03*
D13*
X301173750Y-54737500D03*
D12*
X306253750Y-54737500D03*
D14*
X297363750Y-52197500D03*
X303713750Y-49657500D03*
%TD*%
D15*
%TO.C,D25*%
X153550000Y-84637500D03*
X153550000Y-81337500D03*
%TD*%
D10*
%TO.C,LC3*%
X323195000Y-118975000D03*
X324155000Y-118975000D03*
%TD*%
D15*
%TO.C,D56*%
X91637500Y-122737500D03*
X91637500Y-119437500D03*
%TD*%
D12*
%TO.C,MX86*%
X248468750Y-154750000D03*
X250850000Y-154750000D03*
D13*
X253548750Y-154750000D03*
X255930000Y-154750000D03*
D12*
X258628750Y-154750000D03*
X261010000Y-154750000D03*
D14*
X249738750Y-152210000D03*
X252120000Y-152210000D03*
X256088750Y-149670000D03*
X258470000Y-149670000D03*
%TD*%
D12*
%TO.C,MX55*%
X57968750Y-116650000D03*
D13*
X63048750Y-116650000D03*
D12*
X68128750Y-116650000D03*
D14*
X59238750Y-114110000D03*
X65588750Y-111570000D03*
%TD*%
D12*
%TO.C,MX84*%
X200843750Y-154750000D03*
X203225000Y-154750000D03*
D13*
X205923750Y-154750000D03*
X208305000Y-154750000D03*
D12*
X211003750Y-154750000D03*
X213385000Y-154750000D03*
D14*
X202113750Y-152210000D03*
X204495000Y-152210000D03*
X208463750Y-149670000D03*
X210845000Y-149670000D03*
%TD*%
D16*
%TO.C,R5*%
X300080000Y-65800000D03*
X299120000Y-65800000D03*
%TD*%
D15*
%TO.C,D59*%
X148787500Y-122737500D03*
X148787500Y-119437500D03*
%TD*%
%TO.C,D50*%
X310712500Y-103687500D03*
X310712500Y-100387500D03*
%TD*%
D12*
%TO.C,MX53*%
X19868750Y-116650000D03*
D13*
X24948750Y-116650000D03*
D12*
X30028750Y-116650000D03*
D14*
X21138750Y-114110000D03*
X27488750Y-111570000D03*
%TD*%
D12*
%TO.C,MX79*%
X-11087500Y-154750000D03*
X-8706250Y-154750000D03*
D13*
X-6007500Y-154750000D03*
X-3626250Y-154750000D03*
D12*
X-927500Y-154750000D03*
X1453750Y-154750000D03*
D14*
X-9817500Y-152210000D03*
X-7436250Y-152210000D03*
X-3467500Y-149670000D03*
X-1086250Y-149670000D03*
%TD*%
D12*
%TO.C,MX14*%
X277043750Y-54737500D03*
D13*
X282123750Y-54737500D03*
D12*
X287203750Y-54737500D03*
D14*
X278313750Y-52197500D03*
X284663750Y-49657500D03*
%TD*%
D18*
%TO.C,REF\u002A\u002A*%
X258343000Y-123635000D03*
D19*
X258343000Y-108425000D03*
D18*
X234467000Y-123635000D03*
D19*
X234467000Y-108425000D03*
%TD*%
D15*
%TO.C,D53*%
X34487500Y-122737500D03*
X34487500Y-119437500D03*
%TD*%
%TO.C,D10*%
X210700000Y-60825000D03*
X210700000Y-57525000D03*
%TD*%
D23*
%TO.C,C9*%
X284825000Y-122345000D03*
X284825000Y-123305000D03*
%TD*%
%TO.C,LC7*%
X7975000Y-163945000D03*
X7975000Y-164905000D03*
%TD*%
D28*
%TO.C,R2*%
X286350000Y-121125000D03*
X287900000Y-121125000D03*
%TD*%
D10*
%TO.C,R8*%
X75000Y-126325000D03*
X1035000Y-126325000D03*
%TD*%
D12*
%TO.C,MX10*%
X196081250Y-54737500D03*
D13*
X201161250Y-54737500D03*
D12*
X206241250Y-54737500D03*
D14*
X197351250Y-52197500D03*
X203701250Y-49657500D03*
%TD*%
D12*
%TO.C,MX2*%
X24631250Y-54737500D03*
D13*
X29711250Y-54737500D03*
D12*
X34791250Y-54737500D03*
D14*
X25901250Y-52197500D03*
X32251250Y-49657500D03*
%TD*%
D15*
%TO.C,D29*%
X229750000Y-84637500D03*
X229750000Y-81337500D03*
%TD*%
%TO.C,D78*%
X310712500Y-141787500D03*
X310712500Y-138487500D03*
%TD*%
D12*
%TO.C,MX7*%
X129406250Y-54737500D03*
D13*
X134486250Y-54737500D03*
D12*
X139566250Y-54737500D03*
D14*
X130676250Y-52197500D03*
X137026250Y-49657500D03*
%TD*%
D12*
%TO.C,MX31*%
X243706250Y-78550000D03*
D13*
X248786250Y-78550000D03*
D12*
X253231250Y-78550000D03*
X253866250Y-78550000D03*
D13*
X258311250Y-78550000D03*
D12*
X263391250Y-78550000D03*
D14*
X244976250Y-76010000D03*
X254501250Y-76010000D03*
X251326250Y-73470000D03*
X260851250Y-73470000D03*
%TD*%
D15*
%TO.C,D45*%
X201175000Y-103687500D03*
X201175000Y-100387500D03*
%TD*%
D18*
%TO.C,REF\u002A\u002A*%
X236848250Y-71565000D03*
D19*
X236848250Y-86775000D03*
D18*
X260724250Y-71565000D03*
D19*
X260724250Y-86775000D03*
%TD*%
D15*
%TO.C,D26*%
X172600000Y-84637500D03*
X172600000Y-81337500D03*
%TD*%
D12*
%TO.C,MX77*%
X253231250Y-135700000D03*
D13*
X258311250Y-135700000D03*
D12*
X263391250Y-135700000D03*
D14*
X254501250Y-133160000D03*
X260851250Y-130620000D03*
%TD*%
D12*
%TO.C,MX57*%
X96068750Y-116650000D03*
D13*
X101148750Y-116650000D03*
D12*
X106228750Y-116650000D03*
D14*
X97338750Y-114110000D03*
X103688750Y-111570000D03*
%TD*%
D12*
%TO.C,MX20*%
X43681250Y-78550000D03*
D13*
X48761250Y-78550000D03*
D12*
X53841250Y-78550000D03*
D14*
X44951250Y-76010000D03*
X51301250Y-73470000D03*
%TD*%
D16*
%TO.C,R3*%
X298305000Y-112525000D03*
X297345000Y-112525000D03*
%TD*%
D12*
%TO.C,MX16*%
X315143750Y-54737500D03*
D13*
X320223750Y-54737500D03*
D12*
X325303750Y-54737500D03*
D14*
X316413750Y-52197500D03*
X322763750Y-49657500D03*
%TD*%
D12*
%TO.C,MX58*%
X115118750Y-116650000D03*
D13*
X120198750Y-116650000D03*
D12*
X125278750Y-116650000D03*
D14*
X116388750Y-114110000D03*
X122738750Y-111570000D03*
%TD*%
D12*
%TO.C,MX89*%
X315143750Y-154750000D03*
D13*
X320223750Y-154750000D03*
D12*
X325303750Y-154750000D03*
D14*
X316413750Y-152210000D03*
X322763750Y-149670000D03*
%TD*%
D12*
%TO.C,MX46*%
X205606250Y-97600000D03*
D13*
X210686250Y-97600000D03*
D12*
X215766250Y-97600000D03*
D14*
X206876250Y-95060000D03*
X213226250Y-92520000D03*
%TD*%
D12*
%TO.C,MX34*%
X315143750Y-78550000D03*
D13*
X320223750Y-78550000D03*
D12*
X325303750Y-78550000D03*
D14*
X316413750Y-76010000D03*
X322763750Y-73470000D03*
%TD*%
D16*
%TO.C,C13*%
X299130000Y-116700000D03*
X298170000Y-116700000D03*
%TD*%
D15*
%TO.C,D86*%
X265468750Y-160837500D03*
X265468750Y-157537500D03*
%TD*%
%TO.C,D65*%
X22650000Y-141825000D03*
X22650000Y-138525000D03*
%TD*%
%TO.C,D40*%
X105925000Y-103687500D03*
X105925000Y-100387500D03*
%TD*%
%TO.C,D73*%
X177362500Y-141787500D03*
X177362500Y-138487500D03*
%TD*%
D12*
%TO.C,MX40*%
X91306250Y-97600000D03*
D13*
X96386250Y-97600000D03*
D12*
X101466250Y-97600000D03*
D14*
X92576250Y-95060000D03*
X98926250Y-92520000D03*
%TD*%
D29*
%TO.C,U3*%
X282412500Y-113025000D03*
X282012499Y-113025000D03*
X281612500Y-113025000D03*
X281212500Y-113025000D03*
X280812500Y-113025000D03*
X280412501Y-113025000D03*
X280012500Y-113025000D03*
X279612500Y-113025000D03*
X279212499Y-113025000D03*
X278812500Y-113025000D03*
X278412500Y-113025000D03*
X278012500Y-113025000D03*
X277612501Y-113025000D03*
X277212500Y-113025000D03*
D30*
X276375000Y-113862500D03*
X276375000Y-114262501D03*
X276375000Y-114662500D03*
X276375000Y-115062500D03*
X276375000Y-115462500D03*
X276375000Y-115862499D03*
X276375000Y-116262500D03*
X276375000Y-116662500D03*
X276375000Y-117062501D03*
X276375000Y-117462500D03*
X276375000Y-117862500D03*
X276375000Y-118262500D03*
X276375000Y-118662499D03*
X276375000Y-119062500D03*
D29*
X277212500Y-119900000D03*
X277612501Y-119900000D03*
X278012500Y-119900000D03*
X278412500Y-119900000D03*
X278812500Y-119900000D03*
X279212499Y-119900000D03*
X279612500Y-119900000D03*
X280012500Y-119900000D03*
X280412501Y-119900000D03*
X280812500Y-119900000D03*
X281212500Y-119900000D03*
X281612500Y-119900000D03*
X282012499Y-119900000D03*
X282412500Y-119900000D03*
D30*
X283250000Y-119062500D03*
X283250000Y-118662499D03*
X283250000Y-118262500D03*
X283250000Y-117862500D03*
X283250000Y-117462500D03*
X283250000Y-117062501D03*
X283250000Y-116662500D03*
X283250000Y-116262500D03*
X283250000Y-115862499D03*
X283250000Y-115462500D03*
X283250000Y-115062500D03*
X283250000Y-114662500D03*
X283250000Y-114262501D03*
X283250000Y-113862500D03*
D31*
X279812500Y-116462500D03*
%TD*%
D12*
%TO.C,MX59*%
X134168750Y-116650000D03*
D13*
X139248750Y-116650000D03*
D12*
X144328750Y-116650000D03*
D14*
X135438750Y-114110000D03*
X141788750Y-111570000D03*
%TD*%
D12*
%TO.C,MX19*%
X24631250Y-78550000D03*
D13*
X29711250Y-78550000D03*
D12*
X34791250Y-78550000D03*
D14*
X25901250Y-76010000D03*
X32251250Y-73470000D03*
%TD*%
D15*
%TO.C,D51*%
X310712500Y-95850000D03*
X310712500Y-92550000D03*
%TD*%
D24*
%TO.C,ULED7*%
X11300000Y-166400000D03*
X9550000Y-166400000D03*
D27*
X9550000Y-169900000D03*
D24*
X11300000Y-169900000D03*
%TD*%
D15*
%TO.C,D64*%
X264800000Y-114875000D03*
X264800000Y-111575000D03*
%TD*%
D12*
%TO.C,MX28*%
X196081250Y-78550000D03*
D13*
X201161250Y-78550000D03*
D12*
X206241250Y-78550000D03*
D14*
X197351250Y-76010000D03*
X203701250Y-73470000D03*
%TD*%
D12*
%TO.C,MX76*%
X227037500Y-135700000D03*
D13*
X232117500Y-135700000D03*
D12*
X236562500Y-135700000D03*
X237197500Y-135700000D03*
D13*
X241642500Y-135700000D03*
D12*
X246722500Y-135700000D03*
D14*
X228307500Y-133160000D03*
X244182500Y-130620000D03*
X234657500Y-130620000D03*
X237832500Y-133160000D03*
%TD*%
D32*
%TO.C,U1*%
X298209619Y-120277881D03*
X300109619Y-120277881D03*
X299159619Y-118402880D03*
%TD*%
D15*
%TO.C,D23*%
X115450000Y-84637500D03*
X115450000Y-81337500D03*
%TD*%
%TO.C,D87*%
X291662500Y-160837500D03*
X291662500Y-157537500D03*
%TD*%
%TO.C,D12*%
X248800000Y-60825000D03*
X248800000Y-57525000D03*
%TD*%
%TO.C,D44*%
X182125000Y-103687500D03*
X182125000Y-100387500D03*
%TD*%
%TO.C,D57*%
X110687500Y-122737500D03*
X110687500Y-119437500D03*
%TD*%
D12*
%TO.C,MX72*%
X143693750Y-135700000D03*
D13*
X148773750Y-135700000D03*
D12*
X153853750Y-135700000D03*
D14*
X144963750Y-133160000D03*
X151313750Y-130620000D03*
%TD*%
D12*
%TO.C,MX33*%
X296093750Y-78550000D03*
D13*
X301173750Y-78550000D03*
D12*
X306253750Y-78550000D03*
D14*
X297363750Y-76010000D03*
X303713750Y-73470000D03*
%TD*%
D15*
%TO.C,D76*%
X222500000Y-141787500D03*
X222500000Y-138487500D03*
%TD*%
%TO.C,D80*%
X29725000Y-160837500D03*
X29725000Y-157537500D03*
%TD*%
D16*
%TO.C,LC4*%
X324155000Y-128475000D03*
X323195000Y-128475000D03*
%TD*%
D12*
%TO.C,MX32*%
X277043750Y-78550000D03*
D13*
X282123750Y-78550000D03*
D12*
X287203750Y-78550000D03*
D14*
X278313750Y-76010000D03*
X284663750Y-73470000D03*
%TD*%
D15*
%TO.C,D32*%
X291662500Y-84637500D03*
X291662500Y-81337500D03*
%TD*%
D33*
%TO.C,R1*%
X287900000Y-119625000D03*
X286350000Y-119625000D03*
%TD*%
D18*
%TO.C,REF\u002A\u002A*%
X63055000Y-147765000D03*
D19*
X63055000Y-162975000D03*
D18*
X163055000Y-147765000D03*
D19*
X163055000Y-162975000D03*
%TD*%
D12*
%TO.C,MX49*%
X277043750Y-97600000D03*
D13*
X282123750Y-97600000D03*
D12*
X287203750Y-97600000D03*
D14*
X278313750Y-95060000D03*
X284663750Y-92520000D03*
%TD*%
D16*
%TO.C,C2*%
X287035000Y-118400000D03*
X286075000Y-118400000D03*
%TD*%
D23*
%TO.C,LC8*%
X7020000Y-163945000D03*
X7020000Y-164905000D03*
%TD*%
D12*
%TO.C,MX88*%
X296093750Y-154750000D03*
D13*
X301173750Y-154750000D03*
D12*
X306253750Y-154750000D03*
D14*
X297363750Y-152210000D03*
X303713750Y-149670000D03*
%TD*%
D18*
%TO.C,REF\u002A\u002A*%
X67811250Y-147765000D03*
D19*
X67811250Y-162975000D03*
D18*
X182111250Y-147765000D03*
D19*
X182111250Y-162975000D03*
%TD*%
D12*
%TO.C,MX4*%
X62731250Y-54737500D03*
D13*
X67811250Y-54737500D03*
D12*
X72891250Y-54737500D03*
D14*
X64001250Y-52197500D03*
X70351250Y-49657500D03*
%TD*%
D23*
%TO.C,R10*%
X154325000Y-45045000D03*
X154325000Y-46005000D03*
%TD*%
D34*
%TO.C,Y1*%
X269475000Y-117125000D03*
X269475000Y-119275000D03*
X271025000Y-119275000D03*
X271025000Y-117125000D03*
%TD*%
D12*
%TO.C,MX23*%
X100831250Y-78550000D03*
D13*
X105911250Y-78550000D03*
D12*
X110991250Y-78550000D03*
D14*
X102101250Y-76010000D03*
X108451250Y-73470000D03*
%TD*%
D12*
%TO.C,MX39*%
X72256250Y-97600000D03*
D13*
X77336250Y-97600000D03*
D12*
X82416250Y-97600000D03*
D14*
X73526250Y-95060000D03*
X79876250Y-92520000D03*
%TD*%
D12*
%TO.C,MX27*%
X177031250Y-78550000D03*
D13*
X182111250Y-78550000D03*
D12*
X187191250Y-78550000D03*
D14*
X178301250Y-76010000D03*
X184651250Y-73470000D03*
%TD*%
D16*
%TO.C,R11*%
X285205000Y-125350000D03*
X284245000Y-125350000D03*
%TD*%
D12*
%TO.C,MX3*%
X43681250Y-54737500D03*
D13*
X48761250Y-54737500D03*
D12*
X53841250Y-54737500D03*
D14*
X44951250Y-52197500D03*
X51301250Y-49657500D03*
%TD*%
D15*
%TO.C,D79*%
X5912500Y-160837500D03*
X5912500Y-157537500D03*
%TD*%
%TO.C,D60*%
X167837500Y-122737500D03*
X167837500Y-119437500D03*
%TD*%
%TO.C,D33*%
X310712500Y-84637500D03*
X310712500Y-81337500D03*
%TD*%
%TO.C,D24*%
X134500000Y-84637500D03*
X134500000Y-81337500D03*
%TD*%
D12*
%TO.C,MX66*%
X29393750Y-135700000D03*
D13*
X34473750Y-135700000D03*
D12*
X39553750Y-135700000D03*
D14*
X30663750Y-133160000D03*
X37013750Y-130620000D03*
%TD*%
D15*
%TO.C,D81*%
X53537500Y-160837500D03*
X53537500Y-157537500D03*
%TD*%
%TO.C,D41*%
X124975000Y-103687500D03*
X124975000Y-100387500D03*
%TD*%
%TO.C,D5*%
X96400000Y-60825000D03*
X96400000Y-57525000D03*
%TD*%
%TO.C,D14*%
X291662500Y-60825000D03*
X291662500Y-57525000D03*
%TD*%
D12*
%TO.C,MX43*%
X148456250Y-97600000D03*
D13*
X153536250Y-97600000D03*
D12*
X158616250Y-97600000D03*
D14*
X149726250Y-95060000D03*
X156076250Y-92520000D03*
%TD*%
D15*
%TO.C,D71*%
X139262500Y-141787500D03*
X139262500Y-138487500D03*
%TD*%
D20*
%TO.C,ULED3*%
X321925000Y-120850000D03*
X321925000Y-122600000D03*
D21*
X325425000Y-122600000D03*
D20*
X325425000Y-120850000D03*
%TD*%
D15*
%TO.C,D7*%
X144025000Y-60825000D03*
X144025000Y-57525000D03*
%TD*%
%TO.C,D70*%
X120212500Y-141787500D03*
X120212500Y-138487500D03*
%TD*%
D35*
%TO.C,J1*%
X158815000Y-42015000D03*
X153035000Y-42015000D03*
D36*
X159125000Y-43090000D03*
X158325000Y-43090000D03*
D37*
X157175000Y-43089999D03*
X156175000Y-43090000D03*
X155675000Y-43090000D03*
X154675000Y-43089999D03*
D36*
X153525000Y-43090000D03*
X152725000Y-43090000D03*
X152725000Y-43090000D03*
X153525000Y-43090000D03*
D37*
X154175000Y-43090000D03*
X155175000Y-43090000D03*
X156675000Y-43090000D03*
X157675000Y-43090000D03*
D36*
X158325000Y-43090000D03*
X159125000Y-43090000D03*
D38*
X160245000Y-42515000D03*
D39*
X160245000Y-38335000D03*
D38*
X151605000Y-42515000D03*
D39*
X151605000Y-38335000D03*
%TD*%
D23*
%TO.C,LC6*%
X301975000Y-163820000D03*
X301975000Y-164780000D03*
%TD*%
D40*
%TO.C,U4*%
X188387500Y-55199999D03*
X188387500Y-54250000D03*
X188387500Y-53300001D03*
X186112500Y-53300001D03*
X186112500Y-54250000D03*
X186112500Y-55199999D03*
%TD*%
D12*
%TO.C,MX13*%
X253231250Y-54737500D03*
D13*
X258311250Y-54737500D03*
D12*
X263391250Y-54737500D03*
D14*
X254501250Y-52197500D03*
X260851250Y-49657500D03*
%TD*%
D23*
%TO.C,LC5*%
X302925000Y-163820000D03*
X302925000Y-164780000D03*
%TD*%
D12*
%TO.C,MX36*%
X15106250Y-97600000D03*
D13*
X20186250Y-97600000D03*
D12*
X25266250Y-97600000D03*
D14*
X16376250Y-95060000D03*
X22726250Y-92520000D03*
%TD*%
D12*
%TO.C,MX65*%
X-1562500Y-135700000D03*
D13*
X3517500Y-135700000D03*
D12*
X8597500Y-135700000D03*
D14*
X-292500Y-133160000D03*
X6057500Y-130620000D03*
%TD*%
D12*
%TO.C,MX9*%
X167506250Y-54737500D03*
D13*
X172586250Y-54737500D03*
D12*
X177666250Y-54737500D03*
D14*
X168776250Y-52197500D03*
X175126250Y-49657500D03*
%TD*%
D12*
%TO.C,MX6*%
X110356250Y-54737500D03*
D13*
X115436250Y-54737500D03*
D12*
X120516250Y-54737500D03*
D14*
X111626250Y-52197500D03*
X117976250Y-49657500D03*
%TD*%
D15*
%TO.C,D28*%
X210700000Y-84637500D03*
X210700000Y-81337500D03*
%TD*%
%TO.C,D8*%
X163075000Y-60825000D03*
X163075000Y-57525000D03*
%TD*%
%TO.C,D16*%
X310712500Y-52987500D03*
X310712500Y-49687500D03*
%TD*%
D23*
%TO.C,C14*%
X300109619Y-122172882D03*
X300109619Y-123132882D03*
%TD*%
D15*
%TO.C,D13*%
X267850000Y-60825000D03*
X267850000Y-57525000D03*
%TD*%
%TO.C,D55*%
X72587500Y-122737500D03*
X72587500Y-119437500D03*
%TD*%
%TO.C,D30*%
X229775000Y-76875000D03*
X229775000Y-73575000D03*
%TD*%
D10*
%TO.C,C10*%
X286070000Y-116500000D03*
X287030000Y-116500000D03*
%TD*%
D41*
%TO.C,BOOTSEL1*%
X301125000Y-109697904D03*
X298725000Y-109697904D03*
%TD*%
D16*
%TO.C,C11*%
X273455000Y-117825000D03*
X272495000Y-117825000D03*
%TD*%
D15*
%TO.C,D48*%
X263087500Y-103687500D03*
X263087500Y-100387500D03*
%TD*%
%TO.C,D77*%
X267850000Y-141787500D03*
X267850000Y-138487500D03*
%TD*%
%TO.C,D17*%
X1150000Y-84637500D03*
X1150000Y-81337500D03*
%TD*%
%TO.C,D49*%
X291662500Y-103687500D03*
X291662500Y-100387500D03*
%TD*%
%TO.C,D35*%
X5912500Y-103687500D03*
X5912500Y-100387500D03*
%TD*%
%TO.C,D22*%
X96400000Y-84637500D03*
X96400000Y-81337500D03*
%TD*%
D12*
%TO.C,MX70*%
X105593750Y-135700000D03*
D13*
X110673750Y-135700000D03*
D12*
X115753750Y-135700000D03*
D14*
X106863750Y-133160000D03*
X113213750Y-130620000D03*
%TD*%
D15*
%TO.C,D21*%
X77350000Y-84637500D03*
X77350000Y-81337500D03*
%TD*%
%TO.C,D54*%
X53537500Y-122737500D03*
X53537500Y-119437500D03*
%TD*%
D12*
%TO.C,MX45*%
X186556250Y-97600000D03*
D13*
X191636250Y-97600000D03*
D12*
X196716250Y-97600000D03*
D14*
X187826250Y-95060000D03*
X194176250Y-92520000D03*
%TD*%
D15*
%TO.C,D1*%
X1150000Y-60825000D03*
X1150000Y-57525000D03*
%TD*%
D18*
%TO.C,REF\u002A\u002A*%
X-8420500Y-128715000D03*
D19*
X-8420500Y-143925000D03*
D18*
X15455500Y-128715000D03*
D19*
X15455500Y-143925000D03*
%TD*%
D15*
%TO.C,D61*%
X186887500Y-122737500D03*
X186887500Y-119437500D03*
%TD*%
%TO.C,D72*%
X158312500Y-141787500D03*
X158312500Y-138487500D03*
%TD*%
D12*
%TO.C,MX71*%
X124643750Y-135700000D03*
D13*
X129723750Y-135700000D03*
D12*
X134803750Y-135700000D03*
D14*
X125913750Y-133160000D03*
X132263750Y-130620000D03*
%TD*%
D12*
%TO.C,MX38*%
X53206250Y-97600000D03*
D13*
X58286250Y-97600000D03*
D12*
X63366250Y-97600000D03*
D14*
X54476250Y-95060000D03*
X60826250Y-92520000D03*
%TD*%
D16*
%TO.C,C15*%
X270730000Y-115725000D03*
X269770000Y-115725000D03*
%TD*%
D15*
%TO.C,D67*%
X63062500Y-141787500D03*
X63062500Y-138487500D03*
%TD*%
D12*
%TO.C,MX11*%
X215131250Y-54737500D03*
D13*
X220211250Y-54737500D03*
D12*
X225291250Y-54737500D03*
D14*
X216401250Y-52197500D03*
X222751250Y-49657500D03*
%TD*%
D12*
%TO.C,MX42*%
X129406250Y-97600000D03*
D13*
X134486250Y-97600000D03*
D12*
X139566250Y-97600000D03*
D14*
X130676250Y-95060000D03*
X137026250Y-92520000D03*
%TD*%
D12*
%TO.C,MX50*%
X296093750Y-97600000D03*
D13*
X301173750Y-97600000D03*
D12*
X306253750Y-97600000D03*
D14*
X297363750Y-95060000D03*
X303713750Y-92520000D03*
%TD*%
D12*
%TO.C,MX37*%
X34156250Y-97600000D03*
D13*
X39236250Y-97600000D03*
D12*
X44316250Y-97600000D03*
D14*
X35426250Y-95060000D03*
X41776250Y-92520000D03*
%TD*%
D15*
%TO.C,D39*%
X86875000Y-103687500D03*
X86875000Y-100387500D03*
%TD*%
%TO.C,D62*%
X205937500Y-122737500D03*
X205937500Y-119437500D03*
%TD*%
M02*
