%TF.GenerationSoftware,KiCad,Pcbnew,8.0.1*%
%TF.CreationDate,2025-07-07T19:41:59+09:00*%
%TF.ProjectId,lzIron_RP2040,6c7a4972-6f6e-45f5-9250-323034302e6b,rev?*%
%TF.SameCoordinates,Original*%
%TF.FileFunction,Legend,Bot*%
%TF.FilePolarity,Positive*%
%FSLAX46Y46*%
G04 Gerber Fmt 4.6, Leading zero omitted, Abs format (unit mm)*
G04 Created by KiCad (PCBNEW 8.0.1) date 2025-07-07 19:41:59*
%MOMM*%
%LPD*%
G01*
G04 APERTURE LIST*
%ADD10C,0.100000*%
%ADD11C,2.500000*%
G04 APERTURE END LIST*
D10*
G36*
X302734829Y-111041651D02*
G01*
X302764009Y-111067978D01*
X302777689Y-111105252D01*
X302778115Y-111113545D01*
X302778115Y-111719072D01*
X302768148Y-111758634D01*
X302741660Y-111787813D01*
X302703765Y-111801493D01*
X302695268Y-111801919D01*
X302360362Y-111801919D01*
X302316199Y-111797495D01*
X302275020Y-111784804D01*
X302237720Y-111764722D01*
X302205194Y-111738123D01*
X302178338Y-111705882D01*
X302158046Y-111668874D01*
X302145215Y-111627973D01*
X302140739Y-111584055D01*
X302142170Y-111569400D01*
X302304284Y-111569400D01*
X302312340Y-111608715D01*
X302334629Y-111641630D01*
X302368326Y-111666012D01*
X302410611Y-111679724D01*
X302437542Y-111681947D01*
X302578813Y-111681947D01*
X302606754Y-111658695D01*
X302606754Y-111480300D01*
X302578813Y-111456853D01*
X302437542Y-111456853D01*
X302397818Y-111461898D01*
X302357699Y-111479161D01*
X302326973Y-111506398D01*
X302308463Y-111541215D01*
X302304284Y-111569400D01*
X302142170Y-111569400D01*
X302144861Y-111541836D01*
X302156658Y-111502341D01*
X302175271Y-111466395D01*
X302199842Y-111434825D01*
X302229514Y-111408460D01*
X302240390Y-111400970D01*
X302242734Y-111367362D01*
X302214573Y-111338313D01*
X302193007Y-111303786D01*
X302179207Y-111264899D01*
X302177683Y-111251689D01*
X302334570Y-111251689D01*
X302343997Y-111291378D01*
X302369692Y-111323448D01*
X302407769Y-111344892D01*
X302448192Y-111352579D01*
X302454346Y-111352708D01*
X302582134Y-111352708D01*
X302606754Y-111331605D01*
X302606754Y-111171577D01*
X302582134Y-111150475D01*
X302454346Y-111150475D01*
X302413206Y-111156640D01*
X302373854Y-111176842D01*
X302346399Y-111207901D01*
X302334726Y-111246499D01*
X302334570Y-111251689D01*
X302177683Y-111251689D01*
X302174346Y-111222771D01*
X302180475Y-111175282D01*
X302197788Y-111132041D01*
X302224675Y-111094603D01*
X302259526Y-111064524D01*
X302300731Y-111043361D01*
X302346681Y-111032670D01*
X302366028Y-111031675D01*
X302695268Y-111031675D01*
X302734829Y-111041651D01*
G37*
G36*
X301745124Y-111011351D02*
G01*
X301796459Y-111024949D01*
X301844562Y-111046767D01*
X301888853Y-111076113D01*
X301928750Y-111112297D01*
X301963673Y-111154625D01*
X301993042Y-111202406D01*
X302016275Y-111254950D01*
X302028069Y-111292282D01*
X302036707Y-111331219D01*
X302042015Y-111371555D01*
X302043823Y-111413085D01*
X302042002Y-111454840D01*
X302036659Y-111495343D01*
X302027969Y-111534395D01*
X302016111Y-111571797D01*
X301992769Y-111624370D01*
X301963294Y-111672113D01*
X301928285Y-111714352D01*
X301888338Y-111750416D01*
X301844051Y-111779636D01*
X301796024Y-111801338D01*
X301744853Y-111814851D01*
X301691136Y-111819505D01*
X301637670Y-111814851D01*
X301586702Y-111801338D01*
X301538836Y-111779636D01*
X301494673Y-111750416D01*
X301454818Y-111714352D01*
X301419873Y-111672113D01*
X301390441Y-111624370D01*
X301367124Y-111571797D01*
X301355274Y-111534395D01*
X301346589Y-111495343D01*
X301341247Y-111454840D01*
X301339427Y-111413085D01*
X301491639Y-111413085D01*
X301493946Y-111453420D01*
X301503785Y-111504097D01*
X301520606Y-111550269D01*
X301543593Y-111590888D01*
X301571932Y-111624909D01*
X301604806Y-111651284D01*
X301641402Y-111668969D01*
X301680903Y-111676915D01*
X301691136Y-111677258D01*
X301731559Y-111671909D01*
X301769199Y-111656561D01*
X301803254Y-111632260D01*
X301832919Y-111600053D01*
X301857391Y-111560985D01*
X301875866Y-111516103D01*
X301887541Y-111466454D01*
X301891350Y-111426719D01*
X301891611Y-111413085D01*
X301889303Y-111373070D01*
X301879454Y-111322644D01*
X301862604Y-111276562D01*
X301839556Y-111235913D01*
X301811113Y-111201788D01*
X301778081Y-111175276D01*
X301741261Y-111157468D01*
X301701459Y-111149453D01*
X301691136Y-111149107D01*
X301651036Y-111154503D01*
X301613638Y-111169965D01*
X301579757Y-111194403D01*
X301550208Y-111226727D01*
X301525807Y-111265847D01*
X301507368Y-111310674D01*
X301495707Y-111360116D01*
X301491899Y-111399571D01*
X301491639Y-111413085D01*
X301339427Y-111413085D01*
X301341247Y-111371555D01*
X301346589Y-111331219D01*
X301355274Y-111292282D01*
X301367124Y-111254950D01*
X301390441Y-111202406D01*
X301419873Y-111154625D01*
X301454818Y-111112297D01*
X301494673Y-111076113D01*
X301538836Y-111046767D01*
X301586702Y-111024949D01*
X301637670Y-111011351D01*
X301691136Y-111006665D01*
X301745124Y-111011351D01*
G37*
G36*
X300958075Y-111011351D02*
G01*
X301009411Y-111024949D01*
X301057514Y-111046767D01*
X301101805Y-111076113D01*
X301141702Y-111112297D01*
X301176625Y-111154625D01*
X301205994Y-111202406D01*
X301229227Y-111254950D01*
X301241021Y-111292282D01*
X301249659Y-111331219D01*
X301254967Y-111371555D01*
X301256775Y-111413085D01*
X301254954Y-111454840D01*
X301249611Y-111495343D01*
X301240921Y-111534395D01*
X301229062Y-111571797D01*
X301205721Y-111624370D01*
X301176246Y-111672113D01*
X301141237Y-111714352D01*
X301101289Y-111750416D01*
X301057003Y-111779636D01*
X301008976Y-111801338D01*
X300957805Y-111814851D01*
X300904088Y-111819505D01*
X300850622Y-111814851D01*
X300799654Y-111801338D01*
X300751787Y-111779636D01*
X300707625Y-111750416D01*
X300667770Y-111714352D01*
X300632825Y-111672113D01*
X300603393Y-111624370D01*
X300580076Y-111571797D01*
X300568226Y-111534395D01*
X300559541Y-111495343D01*
X300554199Y-111454840D01*
X300552378Y-111413085D01*
X300704591Y-111413085D01*
X300706898Y-111453420D01*
X300716737Y-111504097D01*
X300733558Y-111550269D01*
X300756545Y-111590888D01*
X300784884Y-111624909D01*
X300817758Y-111651284D01*
X300854353Y-111668969D01*
X300893854Y-111676915D01*
X300904088Y-111677258D01*
X300944511Y-111671909D01*
X300982151Y-111656561D01*
X301016206Y-111632260D01*
X301045871Y-111600053D01*
X301070343Y-111560985D01*
X301088818Y-111516103D01*
X301100493Y-111466454D01*
X301104302Y-111426719D01*
X301104563Y-111413085D01*
X301102254Y-111373070D01*
X301092406Y-111322644D01*
X301075556Y-111276562D01*
X301052507Y-111235913D01*
X301024065Y-111201788D01*
X300991032Y-111175276D01*
X300954213Y-111157468D01*
X300914411Y-111149453D01*
X300904088Y-111149107D01*
X300863988Y-111154503D01*
X300826590Y-111169965D01*
X300792709Y-111194403D01*
X300763160Y-111226727D01*
X300738759Y-111265847D01*
X300720320Y-111310674D01*
X300708659Y-111360116D01*
X300704851Y-111399571D01*
X300704591Y-111413085D01*
X300552378Y-111413085D01*
X300554199Y-111371555D01*
X300559541Y-111331219D01*
X300568226Y-111292282D01*
X300580076Y-111254950D01*
X300603393Y-111202406D01*
X300632825Y-111154625D01*
X300667770Y-111112297D01*
X300707625Y-111076113D01*
X300751787Y-111046767D01*
X300799654Y-111024949D01*
X300850622Y-111011351D01*
X300904088Y-111006665D01*
X300958075Y-111011351D01*
G37*
G36*
X299967954Y-110994159D02*
G01*
X300408177Y-110994159D01*
X300446721Y-111004100D01*
X300477234Y-111033454D01*
X300488771Y-111070792D01*
X300488875Y-111074857D01*
X300479171Y-111113759D01*
X300450101Y-111144811D01*
X300412346Y-111156620D01*
X300408177Y-111156727D01*
X300296217Y-111156727D01*
X300268275Y-111184669D01*
X300268275Y-111725715D01*
X300258571Y-111764486D01*
X300229501Y-111795482D01*
X300191746Y-111807283D01*
X300187577Y-111807390D01*
X300148762Y-111797460D01*
X300117669Y-111767906D01*
X300105815Y-111729887D01*
X300105707Y-111725715D01*
X300105707Y-111184669D01*
X300077766Y-111156727D01*
X299967954Y-111156727D01*
X299929184Y-111147023D01*
X299898188Y-111117953D01*
X299886387Y-111080198D01*
X299886279Y-111076030D01*
X299896210Y-111037214D01*
X299925764Y-111006121D01*
X299963783Y-110994267D01*
X299967954Y-110994159D01*
G37*
G36*
X299233467Y-111578193D02*
G01*
X299238433Y-111530626D01*
X299252528Y-111487371D01*
X299274550Y-111449220D01*
X299303296Y-111416964D01*
X299337562Y-111391395D01*
X299376145Y-111373304D01*
X299392518Y-111368339D01*
X299437230Y-111357583D01*
X299479947Y-111347127D01*
X299525032Y-111334586D01*
X299568971Y-111319557D01*
X299608248Y-111301632D01*
X299645435Y-111274538D01*
X299663530Y-111234103D01*
X299652912Y-111194112D01*
X299625645Y-111165524D01*
X299588022Y-111148512D01*
X299545549Y-111141584D01*
X299529294Y-111141096D01*
X299490329Y-111145792D01*
X299454080Y-111160983D01*
X299423415Y-111186552D01*
X299400623Y-111219084D01*
X299397012Y-111226092D01*
X299371953Y-111257911D01*
X299333725Y-111270701D01*
X299295841Y-111260922D01*
X299282706Y-111252471D01*
X299261291Y-111219613D01*
X299256606Y-111180070D01*
X299267218Y-111140372D01*
X299290759Y-111105412D01*
X299296189Y-111099672D01*
X299328748Y-111070422D01*
X299362053Y-111047364D01*
X299397365Y-111029993D01*
X299435945Y-111017803D01*
X299479055Y-111010290D01*
X299527956Y-111006947D01*
X299549420Y-111006665D01*
X299592731Y-111010244D01*
X299637259Y-111020794D01*
X299680847Y-111038030D01*
X299721342Y-111061668D01*
X299756589Y-111091424D01*
X299784433Y-111127015D01*
X299802720Y-111168156D01*
X299809294Y-111214564D01*
X299805209Y-111264929D01*
X299793640Y-111308096D01*
X299775611Y-111344727D01*
X299743297Y-111384552D01*
X299703756Y-111415512D01*
X299659419Y-111439181D01*
X299612718Y-111457132D01*
X299566084Y-111470938D01*
X299532616Y-111479519D01*
X299489689Y-111493007D01*
X299450926Y-111511341D01*
X299418798Y-111534296D01*
X299393001Y-111566619D01*
X299383530Y-111604571D01*
X299396066Y-111646224D01*
X299430034Y-111675182D01*
X299473046Y-111690610D01*
X299516875Y-111696816D01*
X299540432Y-111697579D01*
X299585080Y-111692861D01*
X299625143Y-111677469D01*
X299657127Y-111651184D01*
X299678511Y-111616853D01*
X299681506Y-111609260D01*
X299703223Y-111572809D01*
X299737877Y-111553200D01*
X299779008Y-111555332D01*
X299813934Y-111578561D01*
X299825324Y-111616480D01*
X299817329Y-111657462D01*
X299812616Y-111668856D01*
X299791294Y-111705398D01*
X299764411Y-111736578D01*
X299732193Y-111762547D01*
X299694866Y-111783454D01*
X299652658Y-111799453D01*
X299605794Y-111810694D01*
X299554502Y-111817327D01*
X299513263Y-111819370D01*
X299499008Y-111819505D01*
X299450244Y-111816173D01*
X299406661Y-111806679D01*
X299368176Y-111791774D01*
X299324646Y-111764782D01*
X299289829Y-111731289D01*
X299263526Y-111693076D01*
X299245538Y-111651923D01*
X299235666Y-111609613D01*
X299233467Y-111578193D01*
G37*
G36*
X298612504Y-111675108D02*
G01*
X298920641Y-111675108D01*
X298948582Y-111647167D01*
X298948582Y-111491829D01*
X298920641Y-111463887D01*
X298690857Y-111463887D01*
X298650994Y-111451491D01*
X298624857Y-111419456D01*
X298619147Y-111391005D01*
X298631533Y-111351142D01*
X298663166Y-111325005D01*
X298690857Y-111319295D01*
X298920641Y-111319295D01*
X298948582Y-111291354D01*
X298948582Y-111179198D01*
X298920641Y-111151256D01*
X298612504Y-111151256D01*
X298572555Y-111138861D01*
X298546476Y-111106825D01*
X298540794Y-111078374D01*
X298553128Y-111038512D01*
X298584731Y-111012374D01*
X298612504Y-111006665D01*
X299030257Y-111006665D01*
X299068887Y-111016641D01*
X299099359Y-111046291D01*
X299110851Y-111084363D01*
X299110955Y-111088535D01*
X299110955Y-111737830D01*
X299101290Y-111776600D01*
X299072267Y-111807596D01*
X299034443Y-111819397D01*
X299030257Y-111819505D01*
X298612504Y-111819505D01*
X298572555Y-111807181D01*
X298546476Y-111775651D01*
X298540794Y-111747990D01*
X298551253Y-111710112D01*
X298581559Y-111682262D01*
X298612504Y-111675108D01*
G37*
G36*
X298409099Y-111737830D02*
G01*
X298399168Y-111776600D01*
X298369614Y-111807596D01*
X298331595Y-111819397D01*
X298327424Y-111819505D01*
X297892672Y-111819505D01*
X297853901Y-111809574D01*
X297822905Y-111780020D01*
X297811104Y-111742001D01*
X297810997Y-111737830D01*
X297820927Y-111699286D01*
X297850481Y-111668774D01*
X297888500Y-111657237D01*
X297892672Y-111657132D01*
X298218785Y-111657132D01*
X298246726Y-111629191D01*
X298246726Y-111088144D01*
X298256657Y-111049374D01*
X298286210Y-111018378D01*
X298324230Y-111006576D01*
X298328401Y-111006469D01*
X298367031Y-111016400D01*
X298397502Y-111045954D01*
X298408995Y-111083973D01*
X298409099Y-111088144D01*
X298409099Y-111737830D01*
G37*
G36*
X297495826Y-111737830D02*
G01*
X297486161Y-111776600D01*
X297457138Y-111807596D01*
X297419313Y-111819397D01*
X297415128Y-111819505D01*
X297376357Y-111809574D01*
X297345362Y-111780020D01*
X297333560Y-111742001D01*
X297333453Y-111737830D01*
X297333453Y-111088144D01*
X297342906Y-111048410D01*
X297372621Y-111021840D01*
X297406140Y-111015457D01*
X297447327Y-111024259D01*
X297476354Y-111051311D01*
X297497975Y-111085995D01*
X297525892Y-111115124D01*
X297559229Y-111136140D01*
X297592155Y-111149889D01*
X297625833Y-111172045D01*
X297646486Y-111207464D01*
X297648233Y-111220426D01*
X297632846Y-111257648D01*
X297597822Y-111278653D01*
X297557644Y-111282044D01*
X297521618Y-111281975D01*
X297495996Y-111313360D01*
X297495826Y-111325743D01*
X297495826Y-111737830D01*
G37*
X-5089285Y-124217580D02*
X-5089285Y-125217580D01*
X-5089285Y-125217580D02*
X-4851190Y-125217580D01*
X-4851190Y-125217580D02*
X-4708333Y-125169961D01*
X-4708333Y-125169961D02*
X-4613095Y-125074723D01*
X-4613095Y-125074723D02*
X-4565476Y-124979485D01*
X-4565476Y-124979485D02*
X-4517857Y-124789009D01*
X-4517857Y-124789009D02*
X-4517857Y-124646152D01*
X-4517857Y-124646152D02*
X-4565476Y-124455676D01*
X-4565476Y-124455676D02*
X-4613095Y-124360438D01*
X-4613095Y-124360438D02*
X-4708333Y-124265200D01*
X-4708333Y-124265200D02*
X-4851190Y-124217580D01*
X-4851190Y-124217580D02*
X-5089285Y-124217580D01*
X-4041666Y-124217580D02*
X-3851190Y-124217580D01*
X-3851190Y-124217580D02*
X-3755952Y-124265200D01*
X-3755952Y-124265200D02*
X-3708333Y-124312819D01*
X-3708333Y-124312819D02*
X-3613095Y-124455676D01*
X-3613095Y-124455676D02*
X-3565476Y-124646152D01*
X-3565476Y-124646152D02*
X-3565476Y-125027104D01*
X-3565476Y-125027104D02*
X-3613095Y-125122342D01*
X-3613095Y-125122342D02*
X-3660714Y-125169961D01*
X-3660714Y-125169961D02*
X-3755952Y-125217580D01*
X-3755952Y-125217580D02*
X-3946428Y-125217580D01*
X-3946428Y-125217580D02*
X-4041666Y-125169961D01*
X-4041666Y-125169961D02*
X-4089285Y-125122342D01*
X-4089285Y-125122342D02*
X-4136904Y-125027104D01*
X-4136904Y-125027104D02*
X-4136904Y-124789009D01*
X-4136904Y-124789009D02*
X-4089285Y-124693771D01*
X-4089285Y-124693771D02*
X-4041666Y-124646152D01*
X-4041666Y-124646152D02*
X-3946428Y-124598533D01*
X-3946428Y-124598533D02*
X-3755952Y-124598533D01*
X-3755952Y-124598533D02*
X-3660714Y-124646152D01*
X-3660714Y-124646152D02*
X-3613095Y-124693771D01*
X-3613095Y-124693771D02*
X-3565476Y-124789009D01*
X-3184523Y-125122342D02*
X-3136904Y-125169961D01*
X-3136904Y-125169961D02*
X-3041666Y-125217580D01*
X-3041666Y-125217580D02*
X-2803571Y-125217580D01*
X-2803571Y-125217580D02*
X-2708333Y-125169961D01*
X-2708333Y-125169961D02*
X-2660714Y-125122342D01*
X-2660714Y-125122342D02*
X-2613095Y-125027104D01*
X-2613095Y-125027104D02*
X-2613095Y-124931866D01*
X-2613095Y-124931866D02*
X-2660714Y-124789009D01*
X-2660714Y-124789009D02*
X-3232142Y-124217580D01*
X-3232142Y-124217580D02*
X-2613095Y-124217580D01*
X302389285Y-56532419D02*
X302389285Y-55532419D01*
X302389285Y-55532419D02*
X302151190Y-55532419D01*
X302151190Y-55532419D02*
X302008333Y-55580038D01*
X302008333Y-55580038D02*
X301913095Y-55675276D01*
X301913095Y-55675276D02*
X301865476Y-55770514D01*
X301865476Y-55770514D02*
X301817857Y-55960990D01*
X301817857Y-55960990D02*
X301817857Y-56103847D01*
X301817857Y-56103847D02*
X301865476Y-56294323D01*
X301865476Y-56294323D02*
X301913095Y-56389561D01*
X301913095Y-56389561D02*
X302008333Y-56484800D01*
X302008333Y-56484800D02*
X302151190Y-56532419D01*
X302151190Y-56532419D02*
X302389285Y-56532419D01*
X301341666Y-56532419D02*
X301151190Y-56532419D01*
X301151190Y-56532419D02*
X301055952Y-56484800D01*
X301055952Y-56484800D02*
X301008333Y-56437180D01*
X301008333Y-56437180D02*
X300913095Y-56294323D01*
X300913095Y-56294323D02*
X300865476Y-56103847D01*
X300865476Y-56103847D02*
X300865476Y-55722895D01*
X300865476Y-55722895D02*
X300913095Y-55627657D01*
X300913095Y-55627657D02*
X300960714Y-55580038D01*
X300960714Y-55580038D02*
X301055952Y-55532419D01*
X301055952Y-55532419D02*
X301246428Y-55532419D01*
X301246428Y-55532419D02*
X301341666Y-55580038D01*
X301341666Y-55580038D02*
X301389285Y-55627657D01*
X301389285Y-55627657D02*
X301436904Y-55722895D01*
X301436904Y-55722895D02*
X301436904Y-55960990D01*
X301436904Y-55960990D02*
X301389285Y-56056228D01*
X301389285Y-56056228D02*
X301341666Y-56103847D01*
X301341666Y-56103847D02*
X301246428Y-56151466D01*
X301246428Y-56151466D02*
X301055952Y-56151466D01*
X301055952Y-56151466D02*
X300960714Y-56103847D01*
X300960714Y-56103847D02*
X300913095Y-56056228D01*
X300913095Y-56056228D02*
X300865476Y-55960990D01*
X300246428Y-55532419D02*
X300151190Y-55532419D01*
X300151190Y-55532419D02*
X300055952Y-55580038D01*
X300055952Y-55580038D02*
X300008333Y-55627657D01*
X300008333Y-55627657D02*
X299960714Y-55722895D01*
X299960714Y-55722895D02*
X299913095Y-55913371D01*
X299913095Y-55913371D02*
X299913095Y-56151466D01*
X299913095Y-56151466D02*
X299960714Y-56341942D01*
X299960714Y-56341942D02*
X300008333Y-56437180D01*
X300008333Y-56437180D02*
X300055952Y-56484800D01*
X300055952Y-56484800D02*
X300151190Y-56532419D01*
X300151190Y-56532419D02*
X300246428Y-56532419D01*
X300246428Y-56532419D02*
X300341666Y-56484800D01*
X300341666Y-56484800D02*
X300389285Y-56437180D01*
X300389285Y-56437180D02*
X300436904Y-56341942D01*
X300436904Y-56341942D02*
X300484523Y-56151466D01*
X300484523Y-56151466D02*
X300484523Y-55913371D01*
X300484523Y-55913371D02*
X300436904Y-55722895D01*
X300436904Y-55722895D02*
X300389285Y-55627657D01*
X300389285Y-55627657D02*
X300341666Y-55580038D01*
X300341666Y-55580038D02*
X300246428Y-55532419D01*
D11*
%TO.C,MX79*%
X-3467500Y-149670000D03*
%TD*%
M02*
