M48
; DRILL file {KiCad 8.0.1} date 2025-07-07T19:42:02+0900
; FORMAT={-:-/ absolute / metric / decimal}
; #@! TF.CreationDate,2025-07-07T19:42:02+09:00
; #@! TF.GenerationSoftware,Kicad,Pcbnew,8.0.1
; #@! TF.FileFunction,NonPlated,1,2,NPTH
FMAT,2
METRIC
; #@! TA.AperFunction,NonPlated,NPTH,ComponentDrill
T1C0.650
; #@! TA.AperFunction,NonPlated,NPTH,ComponentDrill
T2C1.750
; #@! TA.AperFunction,NonPlated,NPTH,ComponentDrill
T3C3.048
; #@! TA.AperFunction,NonPlated,NPTH,ComponentDrill
T4C3.988
; #@! TA.AperFunction,NonPlated,NPTH,ComponentDrill
T5C4.000
%
G90
G05
T1
X153.035Y-42.015
X158.815Y-42.015
T2
X-13.469Y-54.737
X-13.469Y-78.55
X-11.088Y-116.65
X-11.088Y-154.75
X-8.706Y-97.6
X-8.706Y-154.75
X-6.325Y-116.65
X-3.309Y-54.737
X-3.309Y-78.55
X-1.562Y-135.7
X-0.927Y-116.65
X-0.927Y-154.75
X1.454Y-97.6
X1.454Y-154.75
X3.835Y-116.65
X5.581Y-78.55
X8.598Y-135.7
X12.725Y-154.75
X15.106Y-97.6
X15.106Y-154.75
X15.741Y-78.55
X19.869Y-116.65
X22.885Y-154.75
X24.631Y-54.737
X24.631Y-78.55
X25.266Y-97.6
X25.266Y-154.75
X29.394Y-135.7
X30.029Y-116.65
X34.156Y-97.6
X34.791Y-54.737
X34.791Y-78.55
X36.538Y-154.75
X38.919Y-116.65
X38.919Y-154.75
X39.554Y-135.7
X43.681Y-54.737
X43.681Y-78.55
X44.316Y-97.6
X46.697Y-154.75
X48.444Y-135.7
X49.079Y-116.65
X49.079Y-154.75
X53.206Y-97.6
X53.841Y-54.737
X53.841Y-78.55
X57.969Y-116.65
X58.604Y-135.7
X62.731Y-54.737
X62.731Y-78.55
X63.366Y-97.6
X67.494Y-135.7
X68.129Y-116.65
X72.256Y-97.6
X72.891Y-54.737
X72.891Y-78.55
X77.019Y-116.65
X77.654Y-135.7
X81.781Y-54.737
X81.781Y-78.55
X82.416Y-97.6
X86.544Y-135.7
X87.179Y-116.65
X91.306Y-97.6
X91.941Y-54.737
X91.941Y-78.55
X96.069Y-116.65
X96.704Y-135.7
X100.831Y-78.55
X101.466Y-97.6
X105.594Y-135.7
X106.229Y-116.65
X107.975Y-154.75
X110.356Y-54.737
X110.356Y-97.6
X110.991Y-78.55
X115.119Y-116.65
X115.754Y-135.7
X118.135Y-154.75
X119.881Y-78.55
X119.881Y-154.75
X120.516Y-54.737
X120.516Y-97.6
X124.644Y-135.7
X125.279Y-116.65
X129.406Y-54.737
X129.406Y-97.6
X130.041Y-78.55
X130.041Y-154.75
X134.169Y-116.65
X134.804Y-135.7
X138.931Y-78.55
X139.566Y-54.737
X139.566Y-97.6
X143.694Y-135.7
X144.329Y-116.65
X148.456Y-54.737
X148.456Y-97.6
X149.091Y-78.55
X153.219Y-116.65
X153.854Y-135.7
X157.981Y-78.55
X158.616Y-54.737
X158.616Y-97.6
X162.744Y-135.7
X163.379Y-116.65
X167.506Y-54.737
X167.506Y-97.6
X168.141Y-78.55
X172.269Y-116.65
X172.904Y-135.7
X177.031Y-78.55
X177.666Y-54.737
X177.666Y-97.6
X179.412Y-154.75
X181.794Y-135.7
X182.429Y-116.65
X186.556Y-97.6
X187.191Y-78.55
X189.572Y-154.75
X191.319Y-116.65
X191.954Y-135.7
X196.081Y-54.737
X196.081Y-78.55
X196.716Y-97.6
X200.844Y-135.7
X200.844Y-154.75
X201.479Y-116.65
X203.225Y-154.75
X205.606Y-97.6
X206.241Y-54.737
X206.241Y-78.55
X210.369Y-116.65
X211.004Y-135.7
X211.004Y-154.75
X213.385Y-154.75
X215.131Y-54.737
X215.131Y-78.55
X215.766Y-97.6
X220.529Y-116.65
X224.656Y-97.6
X224.656Y-154.75
X225.291Y-54.737
X225.291Y-78.55
X227.037Y-135.7
X227.037Y-154.75
X234.181Y-54.737
X234.181Y-78.55
X234.816Y-97.6
X234.816Y-154.75
X236.562Y-135.7
X237.197Y-135.7
X237.197Y-154.75
X241.325Y-116.65
X243.706Y-78.55
X244.341Y-54.737
X244.341Y-78.55
X246.722Y-135.7
X248.469Y-97.6
X248.469Y-154.75
X250.85Y-154.75
X251.485Y-116.65
X253.231Y-54.737
X253.231Y-78.55
X253.231Y-135.7
X253.866Y-78.55
X258.629Y-97.6
X258.629Y-154.75
X261.01Y-154.75
X263.391Y-54.737
X263.391Y-78.55
X263.391Y-135.7
X277.044Y-54.737
X277.044Y-78.55
X277.044Y-97.6
X277.044Y-154.75
X287.204Y-54.737
X287.204Y-78.55
X287.204Y-97.6
X287.204Y-154.75
X296.094Y-54.737
X296.094Y-78.55
X296.094Y-97.6
X296.094Y-135.7
X296.094Y-154.75
X306.254Y-54.737
X306.254Y-78.55
X306.254Y-97.6
X306.254Y-135.7
X306.254Y-154.75
X315.144Y-54.737
X315.144Y-78.55
X315.144Y-97.6
X315.144Y-154.75
X325.304Y-54.737
X325.304Y-78.55
X325.304Y-97.6
X325.304Y-154.75
T3
X-8.42Y-128.715
X15.455Y-128.715
X63.055Y-147.765
X67.811Y-147.765
X163.055Y-147.765
X182.111Y-147.765
X229.704Y-128.715
X234.467Y-123.635
X236.848Y-71.565
X253.581Y-128.715
X258.343Y-123.635
X260.724Y-71.565
T4
X-8.42Y-143.925
X15.455Y-143.925
X63.055Y-162.975
X67.811Y-162.975
X163.055Y-162.975
X182.111Y-162.975
X229.704Y-143.925
X234.467Y-108.425
X236.848Y-86.775
X253.581Y-143.925
X258.343Y-108.425
X260.724Y-86.775
T5
X-8.389Y-54.737
X-8.389Y-78.55
X-6.007Y-116.65
X-6.007Y-154.75
X-3.626Y-97.6
X-3.626Y-154.75
X-1.245Y-116.65
X3.517Y-135.7
X10.661Y-78.55
X17.805Y-154.75
X20.186Y-97.6
X20.186Y-154.75
X24.949Y-116.65
X29.711Y-54.737
X29.711Y-78.55
X34.474Y-135.7
X39.236Y-97.6
X41.617Y-154.75
X43.999Y-116.65
X43.999Y-154.75
X48.761Y-54.737
X48.761Y-78.55
X53.524Y-135.7
X58.286Y-97.6
X63.049Y-116.65
X67.811Y-54.737
X67.811Y-78.55
X72.574Y-135.7
X77.336Y-97.6
X82.099Y-116.65
X86.861Y-54.737
X86.861Y-78.55
X91.624Y-135.7
X96.386Y-97.6
X101.149Y-116.65
X105.911Y-78.55
X110.674Y-135.7
X113.055Y-154.75
X115.436Y-54.737
X115.436Y-97.6
X120.199Y-116.65
X124.961Y-78.55
X124.961Y-154.75
X129.724Y-135.7
X134.486Y-54.737
X134.486Y-97.6
X139.249Y-116.65
X144.011Y-78.55
X148.774Y-135.7
X153.536Y-54.737
X153.536Y-97.6
X158.299Y-116.65
X163.061Y-78.55
X167.824Y-135.7
X172.586Y-54.737
X172.586Y-97.6
X177.349Y-116.65
X182.111Y-78.55
X184.492Y-154.75
X186.874Y-135.7
X191.636Y-97.6
X196.399Y-116.65
X201.161Y-54.737
X201.161Y-78.55
X205.924Y-135.7
X205.924Y-154.75
X208.305Y-154.75
X210.686Y-97.6
X215.449Y-116.65
X220.211Y-54.737
X220.211Y-78.55
X229.736Y-97.6
X229.736Y-154.75
X232.117Y-135.7
X232.117Y-154.75
X239.261Y-54.737
X239.261Y-78.55
X241.642Y-135.7
X246.405Y-116.65
X248.786Y-78.55
X253.549Y-97.6
X253.549Y-154.75
X255.93Y-154.75
X258.311Y-54.737
X258.311Y-78.55
X258.311Y-135.7
X282.124Y-54.737
X282.124Y-78.55
X282.124Y-97.6
X282.124Y-154.75
X301.174Y-54.737
X301.174Y-78.55
X301.174Y-97.6
X301.174Y-135.7
X301.174Y-154.75
X320.224Y-54.737
X320.224Y-78.55
X320.224Y-97.6
X320.224Y-154.75
M30
