M48
; DRILL file {KiCad 8.0.1} date 2025-07-12T18:26:08+0900
; FORMAT={-:-/ absolute / metric / decimal}
; #@! TF.CreationDate,2025-07-12T18:26:08+09:00
; #@! TF.GenerationSoftware,Kicad,Pcbnew,8.0.1
; #@! TF.FileFunction,Plated,1,2,PTH
FMAT,2
METRIC
; #@! TA.AperFunction,Plated,PTH,ViaDrill
T1C0.300
; #@! TA.AperFunction,Plated,PTH,ComponentDrill
T2C0.350
; #@! TA.AperFunction,Plated,PTH,ComponentDrill
T3C0.600
; #@! TA.AperFunction,Plated,PTH,ComponentDrill
T4C1.000
; #@! TA.AperFunction,Plated,PTH,ComponentDrill
T5C1.500
%
G90
G05
T1
X-4.275Y-127.325
X0.0Y-52.387
X0.0Y-71.438
X0.075Y-126.325
X4.763Y-90.487
X5.525Y-169.925
X7.975Y-164.905
X9.525Y-109.537
X9.525Y-147.637
X9.55Y-169.9
X11.3Y-166.4
X14.287Y-109.537
X19.05Y-52.387
X19.05Y-71.438
X19.05Y-128.588
X22.449Y-124.487
X28.575Y-90.487
X33.337Y-109.537
X33.337Y-147.637
X38.1Y-52.387
X38.1Y-71.438
X41.499Y-124.887
X42.862Y-128.588
X47.625Y-90.487
X52.387Y-109.537
X57.15Y-52.387
X57.15Y-71.438
X57.15Y-147.637
X60.902Y-125.298
X61.912Y-128.588
X66.675Y-90.487
X71.438Y-109.537
X73.819Y-159.544
X73.819Y-164.306
X76.2Y-52.387
X76.2Y-71.438
X76.2Y-147.637
X80.352Y-125.698
X80.962Y-128.588
X85.725Y-90.487
X88.106Y-159.544
X88.106Y-164.306
X90.487Y-109.537
X90.487Y-147.637
X95.25Y-52.387
X95.25Y-71.438
X99.827Y-126.123
X100.012Y-128.588
X104.775Y-90.487
X104.775Y-147.637
X109.537Y-109.537
X111.919Y-159.544
X111.919Y-164.306
X114.3Y-71.438
X119.062Y-128.588
X119.264Y-126.511
X123.825Y-52.387
X123.825Y-90.487
X123.825Y-147.637
X128.588Y-109.537
X133.35Y-71.438
X138.112Y-128.588
X138.112Y-147.637
X138.739Y-126.936
X142.875Y-52.387
X142.875Y-90.487
X142.875Y-159.544
X142.875Y-164.306
X147.637Y-109.537
X152.4Y-71.438
X154.325Y-46.0
X157.162Y-128.588
X157.162Y-147.637
X158.152Y-127.298
X159.782Y-50.443
X161.925Y-90.487
X164.775Y-60.825
X166.688Y-109.537
X170.075Y-58.494
X171.45Y-71.438
X171.45Y-147.637
X176.213Y-128.588
X176.213Y-159.544
X176.213Y-164.306
X177.614Y-127.711
X177.782Y-60.018
X180.975Y-90.487
X182.125Y-60.825
X185.737Y-109.537
X186.112Y-54.25
X190.5Y-52.387
X190.5Y-71.438
X195.262Y-133.35
X195.262Y-147.637
X197.052Y-128.098
X200.025Y-90.487
X204.787Y-109.537
X209.55Y-52.387
X209.55Y-71.438
X214.312Y-133.35
X219.075Y-71.438
X219.075Y-90.487
X219.075Y-147.637
X223.837Y-109.537
X228.6Y-52.387
X235.556Y-68.944
X238.125Y-90.487
X238.125Y-109.537
X239.262Y-125.7
X242.887Y-71.438
X242.887Y-147.637
X246.808Y-125.467
X247.65Y-52.387
X247.65Y-133.35
X252.412Y-109.537
X254.606Y-68.225
X257.175Y-71.438
X261.938Y-90.487
X266.7Y-52.387
X266.7Y-109.537
X266.7Y-128.588
X266.7Y-147.637
X269.45Y-119.3
X270.75Y-115.725
X271.025Y-117.1
X271.125Y-83.6
X271.125Y-104.65
X271.925Y-83.6
X271.925Y-104.65
X272.5Y-116.875
X272.5Y-117.825
X272.725Y-83.6
X272.725Y-104.65
X273.525Y-83.6
X273.525Y-104.65
X274.325Y-83.6
X274.325Y-104.65
X276.225Y-80.962
X276.225Y-90.487
X277.312Y-117.487
X278.35Y-109.0
X278.4Y-123.375
X280.988Y-128.588
X282.312Y-115.899
X282.312Y-117.832
X282.575Y-141.0
X282.575Y-142.6
X282.75Y-109.0
X282.925Y-123.325
X283.9Y-123.3
X284.825Y-123.3
X285.775Y-123.275
X286.07Y-117.45
X287.025Y-118.4
X287.825Y-67.825
X287.9Y-119.625
X287.9Y-121.125
X288.5Y-67.15
X288.625Y-113.75
X289.066Y-66.584
X289.225Y-118.825
X289.675Y-113.725
X290.512Y-52.387
X290.512Y-128.588
X290.512Y-147.637
X290.8Y-113.7
X292.95Y-84.638
X292.95Y-104.5
X293.725Y-60.825
X293.75Y-104.5
X294.55Y-104.5
X295.275Y-90.487
X295.325Y-118.725
X296.45Y-66.575
X297.469Y-71.025
X298.175Y-116.7
X300.037Y-90.487
X300.075Y-65.8
X300.55Y-163.225
X300.55Y-169.8
X302.925Y-164.78
X304.575Y-169.825
X306.325Y-166.3
X309.562Y-71.438
X309.562Y-90.487
X309.562Y-128.588
X316.519Y-70.4
X318.225Y-119.48
X318.225Y-124.745
X318.926Y-115.625
X319.087Y-133.35
X319.087Y-142.875
X320.1Y-126.4
X321.875Y-117.25
X323.85Y-52.387
X323.85Y-133.35
X323.85Y-142.875
X323.85Y-161.925
X323.97Y-128.075
X324.925Y-128.075
X325.85Y-117.25
X325.85Y-122.9
T2
X278.537Y-115.188
X278.537Y-116.462
X278.537Y-117.737
X279.812Y-115.188
X279.812Y-116.462
X279.812Y-117.737
X281.087Y-115.188
X281.087Y-116.462
X281.087Y-117.737
T4
X298.725Y-109.698
X301.125Y-109.698
T5
X-12.199Y-52.197
X-12.199Y-76.01
X-9.817Y-114.11
X-9.817Y-152.21
X-7.436Y-95.06
X-7.436Y-152.21
X-5.849Y-49.657
X-5.849Y-73.47
X-5.055Y-114.11
X-3.467Y-111.57
X-3.467Y-149.67
X-1.086Y-92.52
X-1.086Y-149.67
X-0.292Y-133.16
X1.295Y-111.57
X6.058Y-130.62
X6.851Y-76.01
X13.201Y-73.47
X13.995Y-152.21
X16.376Y-95.06
X16.376Y-152.21
X20.345Y-149.67
X21.139Y-114.11
X22.726Y-92.52
X22.726Y-149.67
X25.901Y-52.197
X25.901Y-76.01
X27.489Y-111.57
X30.664Y-133.16
X32.251Y-49.657
X32.251Y-73.47
X35.426Y-95.06
X37.014Y-130.62
X37.807Y-152.21
X40.189Y-114.11
X40.189Y-152.21
X41.776Y-92.52
X44.157Y-149.67
X44.951Y-52.197
X44.951Y-76.01
X46.539Y-111.57
X46.539Y-149.67
X49.714Y-133.16
X51.301Y-49.657
X51.301Y-73.47
X54.476Y-95.06
X56.064Y-130.62
X59.239Y-114.11
X60.826Y-92.52
X64.001Y-52.197
X64.001Y-76.01
X65.589Y-111.57
X68.764Y-133.16
X70.351Y-49.657
X70.351Y-73.47
X73.526Y-95.06
X75.114Y-130.62
X78.289Y-114.11
X79.876Y-92.52
X83.051Y-52.197
X83.051Y-76.01
X84.639Y-111.57
X87.814Y-133.16
X89.401Y-49.657
X89.401Y-73.47
X92.576Y-95.06
X94.164Y-130.62
X97.339Y-114.11
X98.926Y-92.52
X102.101Y-76.01
X103.689Y-111.57
X106.864Y-133.16
X108.451Y-73.47
X109.245Y-152.21
X111.626Y-52.197
X111.626Y-95.06
X113.214Y-130.62
X115.595Y-149.67
X116.389Y-114.11
X117.976Y-49.657
X117.976Y-92.52
X121.151Y-76.01
X121.151Y-152.21
X122.739Y-111.57
X125.914Y-133.16
X127.501Y-73.47
X127.501Y-149.67
X130.676Y-52.197
X130.676Y-95.06
X132.264Y-130.62
X135.439Y-114.11
X137.026Y-49.657
X137.026Y-92.52
X140.201Y-76.01
X141.789Y-111.57
X144.964Y-133.16
X146.551Y-73.47
X149.726Y-52.197
X149.726Y-95.06
X151.314Y-130.62
X154.489Y-114.11
X156.076Y-49.657
X156.076Y-92.52
X159.251Y-76.01
X160.839Y-111.57
X164.014Y-133.16
X165.601Y-73.47
X168.776Y-52.197
X168.776Y-95.06
X170.364Y-130.62
X173.539Y-114.11
X175.126Y-49.657
X175.126Y-92.52
X178.301Y-76.01
X179.889Y-111.57
X180.683Y-152.21
X183.064Y-133.16
X184.651Y-73.47
X187.032Y-149.67
X187.826Y-95.06
X189.414Y-130.62
X192.589Y-114.11
X194.176Y-92.52
X197.351Y-52.197
X197.351Y-76.01
X198.939Y-111.57
X202.114Y-133.16
X202.114Y-152.21
X203.701Y-49.657
X203.701Y-73.47
X204.495Y-152.21
X206.876Y-95.06
X208.464Y-130.62
X208.464Y-149.67
X210.845Y-149.67
X211.639Y-114.11
X213.226Y-92.52
X216.401Y-52.197
X216.401Y-76.01
X217.989Y-111.57
X222.751Y-49.657
X222.751Y-73.47
X225.926Y-95.06
X225.926Y-152.21
X228.307Y-133.16
X228.307Y-152.21
X232.276Y-92.52
X232.276Y-149.67
X234.657Y-130.62
X234.657Y-149.67
X235.451Y-52.197
X235.451Y-76.01
X237.832Y-133.16
X241.801Y-49.657
X241.801Y-73.47
X242.595Y-114.11
X244.182Y-130.62
X244.976Y-76.01
X248.945Y-111.57
X249.739Y-95.06
X249.739Y-152.21
X251.326Y-73.47
X252.12Y-152.21
X254.501Y-52.197
X254.501Y-76.01
X254.501Y-133.16
X256.089Y-92.52
X256.089Y-149.67
X258.47Y-149.67
X260.851Y-49.657
X260.851Y-73.47
X260.851Y-130.62
X278.314Y-52.197
X278.314Y-76.01
X278.314Y-95.06
X278.314Y-152.21
X284.664Y-49.657
X284.664Y-73.47
X284.664Y-92.52
X284.664Y-149.67
X297.364Y-52.197
X297.364Y-76.01
X297.364Y-95.06
X297.364Y-133.16
X297.364Y-152.21
X303.714Y-49.657
X303.714Y-73.47
X303.714Y-92.52
X303.714Y-130.62
X303.714Y-149.67
X316.414Y-52.197
X316.414Y-76.01
X316.414Y-95.06
X316.414Y-152.21
X322.764Y-49.657
X322.764Y-73.47
X322.764Y-92.52
X322.764Y-149.67
T3
X151.605Y-38.735G85X151.605Y-37.935
G05
X151.605Y-43.065G85X151.605Y-41.965
G05
X160.245Y-38.735G85X160.245Y-37.935
G05
X160.245Y-43.065G85X160.245Y-41.965
G05
M30
