%TF.GenerationSoftware,KiCad,Pcbnew,8.0.1*%
%TF.CreationDate,2025-07-12T18:26:11+09:00*%
%TF.ProjectId,lzIron_RP2040,6c7a4972-6f6e-45f5-9250-323034302e6b,rev?*%
%TF.SameCoordinates,Original*%
%TF.FileFunction,Paste,Top*%
%TF.FilePolarity,Positive*%
%FSLAX46Y46*%
G04 Gerber Fmt 4.6, Leading zero omitted, Abs format (unit mm)*
G04 Created by KiCad (PCBNEW 8.0.1) date 2025-07-12 18:26:11*
%MOMM*%
%LPD*%
G01*
G04 APERTURE LIST*
G04 Aperture macros list*
%AMRoundRect*
0 Rectangle with rounded corners*
0 $1 Rounding radius*
0 $2 $3 $4 $5 $6 $7 $8 $9 X,Y pos of 4 corners*
0 Add a 4 corners polygon primitive as box body*
4,1,4,$2,$3,$4,$5,$6,$7,$8,$9,$2,$3,0*
0 Add four circle primitives for the rounded corners*
1,1,$1+$1,$2,$3*
1,1,$1+$1,$4,$5*
1,1,$1+$1,$6,$7*
1,1,$1+$1,$8,$9*
0 Add four rect primitives between the rounded corners*
20,1,$1+$1,$2,$3,$4,$5,0*
20,1,$1+$1,$4,$5,$6,$7,0*
20,1,$1+$1,$6,$7,$8,$9,0*
20,1,$1+$1,$8,$9,$2,$3,0*%
%AMOutline5P*
0 Free polygon, 5 corners , with rotation*
0 The origin of the aperture is its center*
0 number of corners: always 5*
0 $1 to $10 corner X, Y*
0 $11 Rotation angle, in degrees counterclockwise*
0 create outline with 5 corners*
4,1,5,$1,$2,$3,$4,$5,$6,$7,$8,$9,$10,$1,$2,$11*%
%AMOutline6P*
0 Free polygon, 6 corners , with rotation*
0 The origin of the aperture is its center*
0 number of corners: always 6*
0 $1 to $12 corner X, Y*
0 $13 Rotation angle, in degrees counterclockwise*
0 create outline with 6 corners*
4,1,6,$1,$2,$3,$4,$5,$6,$7,$8,$9,$10,$11,$12,$1,$2,$13*%
%AMOutline7P*
0 Free polygon, 7 corners , with rotation*
0 The origin of the aperture is its center*
0 number of corners: always 7*
0 $1 to $14 corner X, Y*
0 $15 Rotation angle, in degrees counterclockwise*
0 create outline with 7 corners*
4,1,7,$1,$2,$3,$4,$5,$6,$7,$8,$9,$10,$11,$12,$13,$14,$1,$2,$15*%
%AMOutline8P*
0 Free polygon, 8 corners , with rotation*
0 The origin of the aperture is its center*
0 number of corners: always 8*
0 $1 to $16 corner X, Y*
0 $17 Rotation angle, in degrees counterclockwise*
0 create outline with 8 corners*
4,1,8,$1,$2,$3,$4,$5,$6,$7,$8,$9,$10,$11,$12,$13,$14,$15,$16,$1,$2,$17*%
G04 Aperture macros list end*
%ADD10RoundRect,0.140000X0.140000X0.170000X-0.140000X0.170000X-0.140000X-0.170000X0.140000X-0.170000X0*%
%ADD11RoundRect,0.140000X0.170000X-0.140000X0.170000X0.140000X-0.170000X0.140000X-0.170000X-0.140000X0*%
%ADD12RoundRect,0.225000X0.375000X-0.225000X0.375000X0.225000X-0.375000X0.225000X-0.375000X-0.225000X0*%
%ADD13RoundRect,0.150000X-0.150000X0.650000X-0.150000X-0.650000X0.150000X-0.650000X0.150000X0.650000X0*%
%ADD14R,0.850000X1.600000*%
%ADD15Outline6P,-0.800000X0.085000X-0.460000X0.425000X0.800000X0.425000X0.800000X-0.085000X0.460000X-0.425000X-0.800000X-0.425000X270.000000*%
%ADD16RoundRect,0.250000X-0.325000X-0.450000X0.325000X-0.450000X0.325000X0.450000X-0.325000X0.450000X0*%
%ADD17RoundRect,0.140000X-0.170000X0.140000X-0.170000X-0.140000X0.170000X-0.140000X0.170000X0.140000X0*%
%ADD18RoundRect,0.140000X-0.140000X-0.170000X0.140000X-0.170000X0.140000X0.170000X-0.140000X0.170000X0*%
%ADD19Outline6P,-0.800000X0.085000X-0.460000X0.425000X0.800000X0.425000X0.800000X-0.085000X0.460000X-0.425000X-0.800000X-0.425000X90.000000*%
%ADD20RoundRect,0.225000X-0.225000X-0.250000X0.225000X-0.250000X0.225000X0.250000X-0.225000X0.250000X0*%
%ADD21RoundRect,0.250000X-0.292217X0.292217X-0.292217X-0.292217X0.292217X-0.292217X0.292217X0.292217X0*%
%ADD22RoundRect,0.050000X-0.050000X0.387500X-0.050000X-0.387500X0.050000X-0.387500X0.050000X0.387500X0*%
%ADD23RoundRect,0.050000X-0.387500X0.050000X-0.387500X-0.050000X0.387500X-0.050000X0.387500X0.050000X0*%
%ADD24RoundRect,0.150000X0.150000X-0.587500X0.150000X0.587500X-0.150000X0.587500X-0.150000X-0.587500X0*%
%ADD25RoundRect,0.225000X0.225000X0.250000X-0.225000X0.250000X-0.225000X-0.250000X0.225000X-0.250000X0*%
%ADD26R,0.900000X1.000000*%
%ADD27RoundRect,0.150000X0.150000X0.425000X-0.150000X0.425000X-0.150000X-0.425000X0.150000X-0.425000X0*%
%ADD28RoundRect,0.075000X0.075000X0.500000X-0.075000X0.500000X-0.075000X-0.500000X0.075000X-0.500000X0*%
%ADD29O,1.000000X2.100000*%
%ADD30O,1.000000X1.800000*%
%ADD31RoundRect,0.150000X0.512500X0.150000X-0.512500X0.150000X-0.512500X-0.150000X0.512500X-0.150000X0*%
G04 APERTURE END LIST*
D10*
%TO.C,LC2*%
X325930000Y-115625000D03*
X324970000Y-115625000D03*
%TD*%
D11*
%TO.C,C4*%
X282925000Y-123305000D03*
X282925000Y-122345000D03*
%TD*%
D12*
%TO.C,D74*%
X196412500Y-141787500D03*
X196412500Y-138487500D03*
%TD*%
%TO.C,D31*%
X267850000Y-84637500D03*
X267850000Y-81337500D03*
%TD*%
D10*
%TO.C,C1*%
X287030000Y-117450000D03*
X286070000Y-117450000D03*
%TD*%
D12*
%TO.C,D68*%
X82112500Y-141787500D03*
X82112500Y-138487500D03*
%TD*%
D13*
%TO.C,U2*%
X295605000Y-109750000D03*
X294335000Y-109750000D03*
X293065000Y-109750000D03*
X291795000Y-109750000D03*
X291795000Y-116950000D03*
X293065000Y-116950000D03*
X294335000Y-116950000D03*
X295605000Y-116950000D03*
%TD*%
D12*
%TO.C,D69*%
X101162500Y-141787500D03*
X101162500Y-138487500D03*
%TD*%
%TO.C,D15*%
X310712500Y-60825000D03*
X310712500Y-57525000D03*
%TD*%
%TO.C,D37*%
X48775000Y-103687500D03*
X48775000Y-100387500D03*
%TD*%
%TO.C,D66*%
X44012500Y-141787500D03*
X44012500Y-138487500D03*
%TD*%
D14*
%TO.C,ULED1*%
X321824999Y-117250001D03*
X320074999Y-117250001D03*
D15*
X320074999Y-120749999D03*
D14*
X321824999Y-120749999D03*
%TD*%
D12*
%TO.C,D75*%
X215462500Y-141787500D03*
X215462500Y-138487500D03*
%TD*%
D16*
%TO.C,F1*%
X183300000Y-66500000D03*
X185350000Y-66500000D03*
%TD*%
D17*
%TO.C,C12*%
X285775000Y-122345000D03*
X285775000Y-123305000D03*
%TD*%
D18*
%TO.C,R9*%
X158770000Y-45000000D03*
X159730000Y-45000000D03*
%TD*%
D12*
%TO.C,D20*%
X58300000Y-84637500D03*
X58300000Y-81337500D03*
%TD*%
D17*
%TO.C,LC1*%
X318224999Y-118520000D03*
X318224999Y-119480000D03*
%TD*%
D12*
%TO.C,D88*%
X310712500Y-160837500D03*
X310712500Y-157537500D03*
%TD*%
%TO.C,D84*%
X217843750Y-160837500D03*
X217843750Y-157537500D03*
%TD*%
D14*
%TO.C,ULED8*%
X5525000Y-169900000D03*
X7275000Y-169900000D03*
D19*
X7275000Y-166400000D03*
D14*
X5525000Y-166400000D03*
%TD*%
D10*
%TO.C,C8*%
X298305000Y-113474999D03*
X297345000Y-113474999D03*
%TD*%
D12*
%TO.C,D36*%
X29725000Y-103687500D03*
X29725000Y-100387500D03*
%TD*%
%TO.C,D34*%
X310712500Y-76800000D03*
X310712500Y-73500000D03*
%TD*%
%TO.C,D52*%
X8293750Y-122737500D03*
X8293750Y-119437500D03*
%TD*%
D14*
%TO.C,ULED6*%
X300550000Y-169825000D03*
X302300000Y-169825000D03*
D19*
X302300000Y-166325000D03*
D14*
X300550000Y-166325000D03*
%TD*%
D12*
%TO.C,D38*%
X67825000Y-103687500D03*
X67825000Y-100387500D03*
%TD*%
D11*
%TO.C,C3*%
X283875000Y-123305000D03*
X283875000Y-122345000D03*
%TD*%
D12*
%TO.C,D58*%
X129737500Y-122737500D03*
X129737500Y-119437500D03*
%TD*%
D18*
%TO.C,C7*%
X272495000Y-116875000D03*
X273455000Y-116875000D03*
%TD*%
D11*
%TO.C,C5*%
X278400000Y-123380000D03*
X278400000Y-122420000D03*
%TD*%
D12*
%TO.C,D11*%
X229750000Y-60825000D03*
X229750000Y-57525000D03*
%TD*%
%TO.C,D83*%
X194031250Y-160837500D03*
X194031250Y-157537500D03*
%TD*%
%TO.C,D2*%
X39250000Y-60825000D03*
X39250000Y-57525000D03*
%TD*%
%TO.C,D46*%
X220225000Y-103687500D03*
X220225000Y-100387500D03*
%TD*%
D18*
%TO.C,C16*%
X269770000Y-120675000D03*
X270730000Y-120675000D03*
%TD*%
D17*
%TO.C,C6*%
X278350000Y-108994999D03*
X278350000Y-109954999D03*
%TD*%
D12*
%TO.C,D9*%
X182125000Y-60825000D03*
X182125000Y-57525000D03*
%TD*%
D17*
%TO.C,C17*%
X282750000Y-108995000D03*
X282750000Y-109955000D03*
%TD*%
D12*
%TO.C,D63*%
X224987500Y-122737500D03*
X224987500Y-119437500D03*
%TD*%
%TO.C,D4*%
X77350000Y-60825000D03*
X77350000Y-57525000D03*
%TD*%
%TO.C,D43*%
X163075000Y-103687500D03*
X163075000Y-100387500D03*
%TD*%
%TO.C,D85*%
X241656250Y-160837500D03*
X241656250Y-157537500D03*
%TD*%
D14*
%TO.C,ULED2*%
X325850000Y-117250001D03*
X324100000Y-117250001D03*
D15*
X324100000Y-120749999D03*
D14*
X325850000Y-120749999D03*
%TD*%
D12*
%TO.C,D89*%
X310712500Y-153000000D03*
X310712500Y-149700000D03*
%TD*%
%TO.C,D3*%
X58300000Y-60825000D03*
X58300000Y-57525000D03*
%TD*%
%TO.C,D6*%
X124975000Y-60825000D03*
X124975000Y-57525000D03*
%TD*%
D10*
%TO.C,R6*%
X270730000Y-121625000D03*
X269770000Y-121625000D03*
%TD*%
D12*
%TO.C,D18*%
X20200000Y-84637500D03*
X20200000Y-81337500D03*
%TD*%
%TO.C,D47*%
X239275000Y-103687500D03*
X239275000Y-100387500D03*
%TD*%
%TO.C,D82*%
X133950000Y-157350000D03*
X133950000Y-154050000D03*
%TD*%
D10*
%TO.C,R4*%
X298305000Y-111577096D03*
X297345000Y-111577096D03*
%TD*%
D12*
%TO.C,D27*%
X191650000Y-84637500D03*
X191650000Y-81337500D03*
%TD*%
%TO.C,D19*%
X39250000Y-84637500D03*
X39250000Y-81337500D03*
%TD*%
D14*
%TO.C,ULED4*%
X320074999Y-126399999D03*
X321824999Y-126399999D03*
D19*
X321824999Y-122900001D03*
D14*
X320074999Y-122900001D03*
%TD*%
%TO.C,ULED5*%
X306325000Y-166325000D03*
X304575000Y-166325000D03*
D15*
X304575000Y-169825000D03*
D14*
X306325000Y-169825000D03*
%TD*%
D12*
%TO.C,D42*%
X144025000Y-103687500D03*
X144025000Y-100387500D03*
%TD*%
%TO.C,D25*%
X153550000Y-84637500D03*
X153550000Y-81337500D03*
%TD*%
D10*
%TO.C,LC3*%
X324930000Y-128075000D03*
X323970000Y-128075000D03*
%TD*%
D12*
%TO.C,D56*%
X91637500Y-122737500D03*
X91637500Y-119437500D03*
%TD*%
D10*
%TO.C,R5*%
X300080000Y-65800000D03*
X299120000Y-65800000D03*
%TD*%
D12*
%TO.C,D59*%
X148787500Y-122737500D03*
X148787500Y-119437500D03*
%TD*%
%TO.C,D50*%
X310712500Y-103687500D03*
X310712500Y-100387500D03*
%TD*%
%TO.C,D53*%
X34487500Y-122737500D03*
X34487500Y-119437500D03*
%TD*%
%TO.C,D10*%
X210700000Y-60825000D03*
X210700000Y-57525000D03*
%TD*%
D17*
%TO.C,C9*%
X284825000Y-122345000D03*
X284825000Y-123305000D03*
%TD*%
%TO.C,LC7*%
X7975000Y-163945000D03*
X7975000Y-164905000D03*
%TD*%
D20*
%TO.C,R2*%
X286350000Y-121125000D03*
X287900000Y-121125000D03*
%TD*%
D18*
%TO.C,R8*%
X75000Y-126325000D03*
X1035000Y-126325000D03*
%TD*%
D12*
%TO.C,D29*%
X229750000Y-84637500D03*
X229750000Y-81337500D03*
%TD*%
%TO.C,D78*%
X310712500Y-141787500D03*
X310712500Y-138487500D03*
%TD*%
%TO.C,D45*%
X201175000Y-103687500D03*
X201175000Y-100387500D03*
%TD*%
%TO.C,D26*%
X172600000Y-84637500D03*
X172600000Y-81337500D03*
%TD*%
D10*
%TO.C,R3*%
X298305000Y-112525000D03*
X297345000Y-112525000D03*
%TD*%
%TO.C,C13*%
X299130000Y-116700000D03*
X298170000Y-116700000D03*
%TD*%
D12*
%TO.C,D86*%
X265468750Y-160837500D03*
X265468750Y-157537500D03*
%TD*%
%TO.C,D65*%
X22650000Y-141825000D03*
X22650000Y-138525000D03*
%TD*%
%TO.C,D40*%
X105925000Y-103687500D03*
X105925000Y-100387500D03*
%TD*%
%TO.C,D73*%
X177362500Y-141787500D03*
X177362500Y-138487500D03*
%TD*%
D21*
%TO.C,U3*%
X280450000Y-115825000D03*
X279175000Y-115825000D03*
X280450000Y-117100000D03*
X279175000Y-117100000D03*
D22*
X282412500Y-113025000D03*
X282012499Y-113025000D03*
X281612500Y-113025000D03*
X281212500Y-113025000D03*
X280812500Y-113025000D03*
X280412501Y-113025000D03*
X280012500Y-113025000D03*
X279612500Y-113025000D03*
X279212499Y-113025000D03*
X278812500Y-113025000D03*
X278412500Y-113025000D03*
X278012500Y-113025000D03*
X277612501Y-113025000D03*
X277212500Y-113025000D03*
D23*
X276375000Y-113862500D03*
X276375000Y-114262501D03*
X276375000Y-114662500D03*
X276375000Y-115062500D03*
X276375000Y-115462500D03*
X276375000Y-115862499D03*
X276375000Y-116262500D03*
X276375000Y-116662500D03*
X276375000Y-117062501D03*
X276375000Y-117462500D03*
X276375000Y-117862500D03*
X276375000Y-118262500D03*
X276375000Y-118662499D03*
X276375000Y-119062500D03*
D22*
X277212500Y-119900000D03*
X277612501Y-119900000D03*
X278012500Y-119900000D03*
X278412500Y-119900000D03*
X278812500Y-119900000D03*
X279212499Y-119900000D03*
X279612500Y-119900000D03*
X280012500Y-119900000D03*
X280412501Y-119900000D03*
X280812500Y-119900000D03*
X281212500Y-119900000D03*
X281612500Y-119900000D03*
X282012499Y-119900000D03*
X282412500Y-119900000D03*
D23*
X283250000Y-119062500D03*
X283250000Y-118662499D03*
X283250000Y-118262500D03*
X283250000Y-117862500D03*
X283250000Y-117462500D03*
X283250000Y-117062501D03*
X283250000Y-116662500D03*
X283250000Y-116262500D03*
X283250000Y-115862499D03*
X283250000Y-115462500D03*
X283250000Y-115062500D03*
X283250000Y-114662500D03*
X283250000Y-114262501D03*
X283250000Y-113862500D03*
%TD*%
D12*
%TO.C,D51*%
X310712500Y-95850000D03*
X310712500Y-92550000D03*
%TD*%
D14*
%TO.C,ULED7*%
X11300000Y-166400000D03*
X9550000Y-166400000D03*
D15*
X9550000Y-169900000D03*
D14*
X11300000Y-169900000D03*
%TD*%
D12*
%TO.C,D64*%
X264800000Y-114875000D03*
X264800000Y-111575000D03*
%TD*%
D24*
%TO.C,U1*%
X298209619Y-120277881D03*
X300109619Y-120277881D03*
X299159619Y-118402880D03*
%TD*%
D12*
%TO.C,D23*%
X115450000Y-84637500D03*
X115450000Y-81337500D03*
%TD*%
%TO.C,D87*%
X291662500Y-160837500D03*
X291662500Y-157537500D03*
%TD*%
%TO.C,D12*%
X248800000Y-60825000D03*
X248800000Y-57525000D03*
%TD*%
%TO.C,D44*%
X182125000Y-103687500D03*
X182125000Y-100387500D03*
%TD*%
%TO.C,D57*%
X110687500Y-122737500D03*
X110687500Y-119437500D03*
%TD*%
%TO.C,D76*%
X222500000Y-141787500D03*
X222500000Y-138487500D03*
%TD*%
%TO.C,D80*%
X29725000Y-160837500D03*
X29725000Y-157537500D03*
%TD*%
D11*
%TO.C,LC4*%
X318225000Y-125705000D03*
X318225000Y-124745000D03*
%TD*%
D12*
%TO.C,D32*%
X291662500Y-84637500D03*
X291662500Y-81337500D03*
%TD*%
D25*
%TO.C,R1*%
X287900000Y-119625000D03*
X286350000Y-119625000D03*
%TD*%
D10*
%TO.C,C2*%
X287035000Y-118400000D03*
X286075000Y-118400000D03*
%TD*%
D17*
%TO.C,LC8*%
X7020000Y-163945000D03*
X7020000Y-164905000D03*
%TD*%
%TO.C,R10*%
X154325000Y-45045000D03*
X154325000Y-46005000D03*
%TD*%
D26*
%TO.C,Y1*%
X269475000Y-117125000D03*
X269475000Y-119275000D03*
X271025000Y-119275000D03*
X271025000Y-117125000D03*
%TD*%
D10*
%TO.C,R11*%
X285205000Y-125350000D03*
X284245000Y-125350000D03*
%TD*%
D12*
%TO.C,D79*%
X5912500Y-160837500D03*
X5912500Y-157537500D03*
%TD*%
%TO.C,D60*%
X167837500Y-122737500D03*
X167837500Y-119437500D03*
%TD*%
%TO.C,D33*%
X310712500Y-84637500D03*
X310712500Y-81337500D03*
%TD*%
%TO.C,D24*%
X134500000Y-84637500D03*
X134500000Y-81337500D03*
%TD*%
%TO.C,D81*%
X53537500Y-160837500D03*
X53537500Y-157537500D03*
%TD*%
%TO.C,D41*%
X124975000Y-103687500D03*
X124975000Y-100387500D03*
%TD*%
%TO.C,D5*%
X96400000Y-60825000D03*
X96400000Y-57525000D03*
%TD*%
%TO.C,D14*%
X291662500Y-60825000D03*
X291662500Y-57525000D03*
%TD*%
%TO.C,D71*%
X139262500Y-141787500D03*
X139262500Y-138487500D03*
%TD*%
D14*
%TO.C,ULED3*%
X325850000Y-122900002D03*
X324100000Y-122900002D03*
D15*
X324100000Y-126400000D03*
D14*
X325850000Y-126400000D03*
%TD*%
D12*
%TO.C,D7*%
X144025000Y-60825000D03*
X144025000Y-57525000D03*
%TD*%
%TO.C,D70*%
X120212500Y-141787500D03*
X120212500Y-138487500D03*
%TD*%
D27*
%TO.C,J1*%
X159125000Y-43090000D03*
X158325000Y-43090000D03*
D28*
X157175000Y-43089999D03*
X156175000Y-43090000D03*
X155675000Y-43090000D03*
X154675000Y-43089999D03*
D27*
X153525000Y-43090000D03*
X152725000Y-43090000D03*
X152725000Y-43090000D03*
X153525000Y-43090000D03*
D28*
X154175000Y-43090000D03*
X155175000Y-43090000D03*
X156675000Y-43090000D03*
X157675000Y-43090000D03*
D27*
X158325000Y-43090000D03*
X159125000Y-43090000D03*
D29*
X160245000Y-42515000D03*
D30*
X160245000Y-38335000D03*
D29*
X151605000Y-42515000D03*
D30*
X151605000Y-38335000D03*
%TD*%
D17*
%TO.C,LC6*%
X301975000Y-163820000D03*
X301975000Y-164780000D03*
%TD*%
D31*
%TO.C,U4*%
X188387500Y-55199999D03*
X188387500Y-54250000D03*
X188387500Y-53300001D03*
X186112500Y-53300001D03*
X186112500Y-54250000D03*
X186112500Y-55199999D03*
%TD*%
D17*
%TO.C,LC5*%
X302925000Y-163820000D03*
X302925000Y-164780000D03*
%TD*%
D12*
%TO.C,D28*%
X210700000Y-84637500D03*
X210700000Y-81337500D03*
%TD*%
%TO.C,D8*%
X163075000Y-60825000D03*
X163075000Y-57525000D03*
%TD*%
%TO.C,D16*%
X310712500Y-52987500D03*
X310712500Y-49687500D03*
%TD*%
D17*
%TO.C,C14*%
X300109619Y-122172882D03*
X300109619Y-123132882D03*
%TD*%
D12*
%TO.C,D13*%
X267850000Y-60825000D03*
X267850000Y-57525000D03*
%TD*%
%TO.C,D55*%
X72587500Y-122737500D03*
X72587500Y-119437500D03*
%TD*%
%TO.C,D30*%
X229775000Y-76875000D03*
X229775000Y-73575000D03*
%TD*%
D18*
%TO.C,C10*%
X286070000Y-116500000D03*
X287030000Y-116500000D03*
%TD*%
D10*
%TO.C,C11*%
X273455000Y-117825000D03*
X272495000Y-117825000D03*
%TD*%
D12*
%TO.C,D48*%
X263087500Y-103687500D03*
X263087500Y-100387500D03*
%TD*%
%TO.C,D77*%
X267850000Y-141787500D03*
X267850000Y-138487500D03*
%TD*%
%TO.C,D17*%
X1150000Y-84637500D03*
X1150000Y-81337500D03*
%TD*%
%TO.C,D49*%
X291662500Y-103687500D03*
X291662500Y-100387500D03*
%TD*%
%TO.C,D35*%
X5912500Y-103687500D03*
X5912500Y-100387500D03*
%TD*%
%TO.C,D22*%
X96400000Y-84637500D03*
X96400000Y-81337500D03*
%TD*%
%TO.C,D21*%
X77350000Y-84637500D03*
X77350000Y-81337500D03*
%TD*%
%TO.C,D54*%
X53537500Y-122737500D03*
X53537500Y-119437500D03*
%TD*%
%TO.C,D1*%
X1150000Y-60825000D03*
X1150000Y-57525000D03*
%TD*%
%TO.C,D61*%
X186887500Y-122737500D03*
X186887500Y-119437500D03*
%TD*%
%TO.C,D72*%
X158312500Y-141787500D03*
X158312500Y-138487500D03*
%TD*%
D10*
%TO.C,C15*%
X270730000Y-115725000D03*
X269770000Y-115725000D03*
%TD*%
D12*
%TO.C,D67*%
X63062500Y-141787500D03*
X63062500Y-138487500D03*
%TD*%
%TO.C,D39*%
X86875000Y-103687500D03*
X86875000Y-100387500D03*
%TD*%
%TO.C,D62*%
X205937500Y-122737500D03*
X205937500Y-119437500D03*
%TD*%
M02*
